G04*
G04 #@! TF.GenerationSoftware,Altium Limited,Altium Designer,20.0.13 (296)*
G04*
G04 Layer_Color=16711935*
%FSLAX24Y24*%
%MOIN*%
G70*
G01*
G75*
%ADD10C,0.0100*%
%ADD28R,0.0660X0.0749*%
%ADD29C,0.0749*%
%ADD30R,0.0749X0.0749*%
%ADD31C,0.0749*%
%ADD32R,0.0709X0.0709*%
%ADD33C,0.0709*%
%ADD34R,0.0749X0.0749*%
%ADD59R,0.0749X0.0434*%
%ADD60R,0.0394X0.0355*%
%ADD61R,0.0355X0.0394*%
%ADD62R,0.0380X0.0358*%
%ADD63R,0.0961X0.1457*%
%ADD64R,0.1024X0.0473*%
%ADD65R,0.0358X0.0380*%
%ADD66C,0.0280*%
D10*
X-50Y3400D02*
X2200D01*
X-50Y6500D02*
X2200D01*
X-50Y-50D02*
Y3400D01*
Y6500D02*
Y9950D01*
X2200Y3400D02*
Y6500D01*
X-50Y-50D02*
X22950D01*
Y9950D01*
X-50D02*
X22950D01*
D28*
X6750Y7250D02*
D03*
Y6200D02*
D03*
D29*
X5750Y7250D02*
D03*
X4750D02*
D03*
X5750Y6200D02*
D03*
X4750D02*
D03*
X19950Y1000D02*
D03*
X18950D02*
D03*
X17950D02*
D03*
X16950D02*
D03*
X15950D02*
D03*
X14950D02*
D03*
X13950D02*
D03*
X12950D02*
D03*
X11950D02*
D03*
X10950D02*
D03*
X9950D02*
D03*
X8950D02*
D03*
X7950D02*
D03*
X6950D02*
D03*
X5950D02*
D03*
X4950D02*
D03*
X3950D02*
D03*
X2950D02*
D03*
X1950D02*
D03*
X19950Y8950D02*
D03*
X18950D02*
D03*
X17950D02*
D03*
X16950D02*
D03*
X15950D02*
D03*
X14950D02*
D03*
X13950D02*
D03*
X12950D02*
D03*
X11950D02*
D03*
X10950D02*
D03*
X9950D02*
D03*
X8950D02*
D03*
X7950D02*
D03*
X6950D02*
D03*
X5950D02*
D03*
X4950D02*
D03*
X3950D02*
D03*
X2950D02*
D03*
X1950D02*
D03*
D30*
X21950Y3450D02*
D03*
D31*
Y4450D02*
D03*
Y5450D02*
D03*
Y6450D02*
D03*
D32*
X20400D02*
D03*
D33*
Y5450D02*
D03*
Y4450D02*
D03*
Y3450D02*
D03*
D34*
X20950Y1000D02*
D03*
Y8950D02*
D03*
D59*
X13500Y5392D02*
D03*
Y4408D02*
D03*
D60*
X9700Y3326D02*
D03*
Y2774D02*
D03*
X8250Y7324D02*
D03*
Y7876D02*
D03*
X16700Y7374D02*
D03*
Y7926D02*
D03*
X3200Y2074D02*
D03*
Y2626D02*
D03*
X3900Y2074D02*
D03*
Y2626D02*
D03*
X9000Y2774D02*
D03*
Y3326D02*
D03*
X8300Y2774D02*
D03*
Y3326D02*
D03*
X18600Y7926D02*
D03*
Y7374D02*
D03*
X15400D02*
D03*
Y7926D02*
D03*
X12750Y5976D02*
D03*
Y5424D02*
D03*
Y3824D02*
D03*
Y4376D02*
D03*
D61*
X20676Y1900D02*
D03*
X20124D02*
D03*
X17276Y5750D02*
D03*
X16724D02*
D03*
X17226Y4150D02*
D03*
X16674D02*
D03*
D62*
X17350Y7353D02*
D03*
Y7947D02*
D03*
X11550Y2753D02*
D03*
Y3347D02*
D03*
X10350Y2753D02*
D03*
Y3347D02*
D03*
X10950Y2753D02*
D03*
Y3347D02*
D03*
X8900Y7303D02*
D03*
Y7897D02*
D03*
X9550Y7303D02*
D03*
Y7897D02*
D03*
X16050Y7947D02*
D03*
Y7353D02*
D03*
X17950D02*
D03*
Y7947D02*
D03*
Y4653D02*
D03*
Y5247D02*
D03*
D63*
X7319Y3100D02*
D03*
D64*
X4981Y4006D02*
D03*
Y3100D02*
D03*
Y2194D02*
D03*
D65*
X20103Y2600D02*
D03*
X20697D02*
D03*
D66*
X6150Y2800D02*
D03*
X13300Y4000D02*
D03*
X13650D02*
D03*
X6450Y2800D02*
D03*
Y3450D02*
D03*
X6150D02*
D03*
X13300Y5800D02*
D03*
M02*
