G04*
G04 #@! TF.GenerationSoftware,Altium Limited,Altium Designer,20.0.13 (296)*
G04*
G04 Layer_Physical_Order=2*
G04 Layer_Color=16711680*
%FSLAX24Y24*%
%MOIN*%
G70*
G01*
G75*
%ADD10C,0.0100*%
%ADD37C,0.0060*%
%ADD38C,0.0200*%
%ADD39C,0.0160*%
%ADD40R,0.0620X0.0709*%
%ADD41C,0.0709*%
%ADD42R,0.0709X0.0709*%
%ADD43C,0.0709*%
%ADD44R,0.0669X0.0669*%
%ADD45C,0.0669*%
%ADD46R,0.0709X0.0709*%
%ADD49C,0.0200*%
%ADD50R,0.0709X0.0394*%
%ADD51R,0.0354X0.0315*%
%ADD52R,0.0315X0.0354*%
%ADD53R,0.0340X0.0318*%
%ADD54R,0.0921X0.1417*%
%ADD55R,0.0984X0.0433*%
%ADD56R,0.0318X0.0340*%
%ADD57C,0.0050*%
%ADD58C,0.0150*%
G36*
X22900Y0D02*
X0D01*
Y3350D01*
X2250D01*
Y6550D01*
X0D01*
Y9900D01*
X22900D01*
Y0D01*
D02*
G37*
%LPC*%
G36*
X3050Y9395D02*
Y9050D01*
X3395D01*
X3393Y9069D01*
X3347Y9179D01*
X3274Y9274D01*
X3179Y9347D01*
X3069Y9393D01*
X3050Y9395D01*
D02*
G37*
G36*
X2050D02*
Y9050D01*
X2395D01*
X2393Y9069D01*
X2347Y9179D01*
X2274Y9274D01*
X2179Y9347D01*
X2069Y9393D01*
X2050Y9395D01*
D02*
G37*
G36*
X2850D02*
X2831Y9393D01*
X2721Y9347D01*
X2626Y9274D01*
X2553Y9179D01*
X2507Y9069D01*
X2505Y9050D01*
X2850D01*
Y9395D01*
D02*
G37*
G36*
X1850D02*
X1831Y9393D01*
X1721Y9347D01*
X1626Y9274D01*
X1553Y9179D01*
X1507Y9069D01*
X1505Y9050D01*
X1850D01*
Y9395D01*
D02*
G37*
G36*
X17950Y9368D02*
X17842Y9354D01*
X17741Y9312D01*
X17654Y9246D01*
X17588Y9159D01*
X17546Y9058D01*
X17532Y8950D01*
X17546Y8842D01*
X17588Y8741D01*
X17654Y8654D01*
X17741Y8588D01*
X17842Y8546D01*
X17950Y8532D01*
X18058Y8546D01*
X18159Y8588D01*
X18246Y8654D01*
X18312Y8741D01*
X18354Y8842D01*
X18368Y8950D01*
X18354Y9058D01*
X18312Y9159D01*
X18246Y9246D01*
X18159Y9312D01*
X18058Y9354D01*
X17950Y9368D01*
D02*
G37*
G36*
X14950D02*
X14842Y9354D01*
X14741Y9312D01*
X14654Y9246D01*
X14588Y9159D01*
X14546Y9058D01*
X14532Y8950D01*
X14546Y8842D01*
X14588Y8741D01*
X14654Y8654D01*
X14741Y8588D01*
X14842Y8546D01*
X14950Y8532D01*
X15058Y8546D01*
X15159Y8588D01*
X15246Y8654D01*
X15312Y8741D01*
X15354Y8842D01*
X15368Y8950D01*
X15354Y9058D01*
X15312Y9159D01*
X15246Y9246D01*
X15159Y9312D01*
X15058Y9354D01*
X14950Y9368D01*
D02*
G37*
G36*
X13950D02*
X13842Y9354D01*
X13741Y9312D01*
X13654Y9246D01*
X13588Y9159D01*
X13546Y9058D01*
X13532Y8950D01*
X13546Y8842D01*
X13588Y8741D01*
X13654Y8654D01*
X13741Y8588D01*
X13842Y8546D01*
X13950Y8532D01*
X14058Y8546D01*
X14159Y8588D01*
X14246Y8654D01*
X14312Y8741D01*
X14354Y8842D01*
X14368Y8950D01*
X14354Y9058D01*
X14312Y9159D01*
X14246Y9246D01*
X14159Y9312D01*
X14058Y9354D01*
X13950Y9368D01*
D02*
G37*
G36*
X12950D02*
X12842Y9354D01*
X12741Y9312D01*
X12654Y9246D01*
X12588Y9159D01*
X12546Y9058D01*
X12532Y8950D01*
X12546Y8842D01*
X12588Y8741D01*
X12654Y8654D01*
X12741Y8588D01*
X12842Y8546D01*
X12950Y8532D01*
X13058Y8546D01*
X13159Y8588D01*
X13246Y8654D01*
X13312Y8741D01*
X13354Y8842D01*
X13368Y8950D01*
X13354Y9058D01*
X13312Y9159D01*
X13246Y9246D01*
X13159Y9312D01*
X13058Y9354D01*
X12950Y9368D01*
D02*
G37*
G36*
X11950D02*
X11842Y9354D01*
X11741Y9312D01*
X11654Y9246D01*
X11588Y9159D01*
X11546Y9058D01*
X11532Y8950D01*
X11546Y8842D01*
X11588Y8741D01*
X11654Y8654D01*
X11741Y8588D01*
X11842Y8546D01*
X11950Y8532D01*
X12058Y8546D01*
X12159Y8588D01*
X12246Y8654D01*
X12312Y8741D01*
X12354Y8842D01*
X12368Y8950D01*
X12354Y9058D01*
X12312Y9159D01*
X12246Y9246D01*
X12159Y9312D01*
X12058Y9354D01*
X11950Y9368D01*
D02*
G37*
G36*
X10950D02*
X10842Y9354D01*
X10741Y9312D01*
X10654Y9246D01*
X10588Y9159D01*
X10546Y9058D01*
X10532Y8950D01*
X10546Y8842D01*
X10588Y8741D01*
X10654Y8654D01*
X10741Y8588D01*
X10842Y8546D01*
X10950Y8532D01*
X11058Y8546D01*
X11159Y8588D01*
X11246Y8654D01*
X11312Y8741D01*
X11354Y8842D01*
X11368Y8950D01*
X11354Y9058D01*
X11312Y9159D01*
X11246Y9246D01*
X11159Y9312D01*
X11058Y9354D01*
X10950Y9368D01*
D02*
G37*
G36*
X9950D02*
X9842Y9354D01*
X9741Y9312D01*
X9654Y9246D01*
X9588Y9159D01*
X9546Y9058D01*
X9532Y8950D01*
X9546Y8842D01*
X9588Y8741D01*
X9654Y8654D01*
X9741Y8588D01*
X9842Y8546D01*
X9950Y8532D01*
X10058Y8546D01*
X10159Y8588D01*
X10246Y8654D01*
X10312Y8741D01*
X10354Y8842D01*
X10368Y8950D01*
X10354Y9058D01*
X10312Y9159D01*
X10246Y9246D01*
X10159Y9312D01*
X10058Y9354D01*
X9950Y9368D01*
D02*
G37*
G36*
X5950D02*
X5842Y9354D01*
X5741Y9312D01*
X5654Y9246D01*
X5588Y9159D01*
X5546Y9058D01*
X5532Y8950D01*
X5546Y8842D01*
X5588Y8741D01*
X5654Y8654D01*
X5741Y8588D01*
X5842Y8546D01*
X5950Y8532D01*
X6058Y8546D01*
X6159Y8588D01*
X6246Y8654D01*
X6312Y8741D01*
X6354Y8842D01*
X6368Y8950D01*
X6354Y9058D01*
X6312Y9159D01*
X6246Y9246D01*
X6159Y9312D01*
X6058Y9354D01*
X5950Y9368D01*
D02*
G37*
G36*
X19395Y8850D02*
X19050D01*
Y8505D01*
X19069Y8507D01*
X19179Y8553D01*
X19274Y8626D01*
X19347Y8721D01*
X19393Y8831D01*
X19395Y8850D01*
D02*
G37*
G36*
X3395D02*
X3050D01*
Y8505D01*
X3069Y8507D01*
X3179Y8553D01*
X3274Y8626D01*
X3347Y8721D01*
X3393Y8831D01*
X3395Y8850D01*
D02*
G37*
G36*
X2395D02*
X2050D01*
Y8505D01*
X2069Y8507D01*
X2179Y8553D01*
X2274Y8626D01*
X2347Y8721D01*
X2393Y8831D01*
X2395Y8850D01*
D02*
G37*
G36*
X18850D02*
X18505D01*
X18507Y8831D01*
X18553Y8721D01*
X18626Y8626D01*
X18721Y8553D01*
X18831Y8507D01*
X18850Y8505D01*
Y8850D01*
D02*
G37*
G36*
X2850D02*
X2505D01*
X2507Y8831D01*
X2553Y8721D01*
X2626Y8626D01*
X2721Y8553D01*
X2831Y8507D01*
X2850Y8505D01*
Y8850D01*
D02*
G37*
G36*
X1850D02*
X1505D01*
X1507Y8831D01*
X1553Y8721D01*
X1626Y8626D01*
X1721Y8553D01*
X1831Y8507D01*
X1850Y8505D01*
Y8850D01*
D02*
G37*
G36*
X8950Y9368D02*
X8842Y9354D01*
X8741Y9312D01*
X8654Y9246D01*
X8588Y9159D01*
X8546Y9058D01*
X8532Y8950D01*
X8546Y8842D01*
X8588Y8741D01*
X8654Y8654D01*
X8741Y8588D01*
X8842Y8546D01*
X8875Y8542D01*
X8872Y8492D01*
X8028D01*
X8025Y8542D01*
X8058Y8546D01*
X8159Y8588D01*
X8246Y8654D01*
X8312Y8741D01*
X8354Y8842D01*
X8368Y8950D01*
X8354Y9058D01*
X8312Y9159D01*
X8246Y9246D01*
X8159Y9312D01*
X8058Y9354D01*
X7950Y9368D01*
X7842Y9354D01*
X7741Y9312D01*
X7654Y9246D01*
X7588Y9159D01*
X7546Y9058D01*
X7532Y8950D01*
X7546Y8842D01*
X7588Y8741D01*
X7654Y8654D01*
X7741Y8588D01*
X7842Y8546D01*
X7875Y8542D01*
X7872Y8492D01*
X7028D01*
X7025Y8542D01*
X7058Y8546D01*
X7159Y8588D01*
X7246Y8654D01*
X7312Y8741D01*
X7354Y8842D01*
X7368Y8950D01*
X7354Y9058D01*
X7312Y9159D01*
X7246Y9246D01*
X7159Y9312D01*
X7058Y9354D01*
X6950Y9368D01*
X6842Y9354D01*
X6741Y9312D01*
X6654Y9246D01*
X6588Y9159D01*
X6546Y9058D01*
X6532Y8950D01*
X6546Y8842D01*
X6588Y8741D01*
X6654Y8654D01*
X6741Y8588D01*
X6842Y8546D01*
X6875Y8542D01*
X6872Y8492D01*
X6050D01*
X6015Y8485D01*
X5985Y8465D01*
X5185Y7665D01*
X5165Y7635D01*
X5158Y7600D01*
Y7547D01*
X5108Y7530D01*
X5074Y7574D01*
X4979Y7647D01*
X4869Y7693D01*
X4850Y7695D01*
Y7250D01*
Y6805D01*
X4869Y6807D01*
X4979Y6853D01*
X5074Y6926D01*
X5108Y6970D01*
X5158Y6953D01*
Y6700D01*
X5165Y6665D01*
X5185Y6635D01*
X5276Y6544D01*
X5278Y6538D01*
X5288Y6526D01*
X5295Y6513D01*
X5303Y6495D01*
X5310Y6470D01*
X5316Y6439D01*
X5322Y6403D01*
X5330Y6260D01*
X5331Y6203D01*
X5332Y6200D01*
X5332Y6200D01*
X5346Y6092D01*
X5388Y5991D01*
X5454Y5904D01*
X5541Y5838D01*
X5642Y5796D01*
X5750Y5782D01*
X5858Y5796D01*
X5959Y5838D01*
X6046Y5904D01*
X6112Y5991D01*
X6154Y6092D01*
X6168Y6200D01*
X6154Y6308D01*
X6112Y6409D01*
X6046Y6496D01*
X5959Y6562D01*
X5858Y6604D01*
X5751Y6618D01*
X5747Y6619D01*
X5637Y6621D01*
X5547Y6628D01*
X5511Y6634D01*
X5480Y6640D01*
X5455Y6647D01*
X5437Y6655D01*
X5424Y6662D01*
X5412Y6672D01*
X5406Y6674D01*
X5342Y6738D01*
Y7022D01*
X5375Y7036D01*
X5392Y7036D01*
X5454Y6954D01*
X5541Y6888D01*
X5642Y6846D01*
X5750Y6832D01*
X5858Y6846D01*
X5959Y6888D01*
X6046Y6954D01*
X6112Y7041D01*
X6154Y7142D01*
X6168Y7250D01*
X6154Y7358D01*
X6112Y7459D01*
X6046Y7545D01*
X6045Y7548D01*
X5968Y7628D01*
X5909Y7696D01*
X5888Y7725D01*
X5871Y7752D01*
X5858Y7775D01*
X5850Y7793D01*
X5846Y7807D01*
X5845Y7823D01*
X5842Y7828D01*
Y7892D01*
X6138Y8188D01*
X8671D01*
Y8116D01*
X8670Y8115D01*
Y7678D01*
X9130D01*
Y8115D01*
X9131Y8308D01*
X9312D01*
X9320Y8300D01*
Y8115D01*
Y7678D01*
X9780D01*
Y8115D01*
X9645D01*
X9645Y8116D01*
X9642Y8123D01*
Y8200D01*
X9635Y8235D01*
X9615Y8265D01*
X9415Y8465D01*
X9385Y8485D01*
X9350Y8492D01*
X9028D01*
X9025Y8542D01*
X9058Y8546D01*
X9159Y8588D01*
X9246Y8654D01*
X9312Y8741D01*
X9354Y8842D01*
X9368Y8950D01*
X9354Y9058D01*
X9312Y9159D01*
X9246Y9246D01*
X9159Y9312D01*
X9058Y9354D01*
X8950Y9368D01*
D02*
G37*
G36*
X19300Y9763D02*
X4600D01*
X4538Y9751D01*
X4485Y9715D01*
X4230Y9461D01*
X4227Y9460D01*
X4206Y9441D01*
X4186Y9426D01*
X4165Y9413D01*
X4141Y9402D01*
X4116Y9392D01*
X4088Y9384D01*
X4058Y9377D01*
X4026Y9373D01*
X3991Y9370D01*
X3952Y9369D01*
X3949Y9368D01*
X3842Y9354D01*
X3741Y9312D01*
X3654Y9246D01*
X3588Y9159D01*
X3546Y9058D01*
X3532Y8950D01*
X3546Y8842D01*
X3588Y8741D01*
X3654Y8654D01*
X3741Y8588D01*
X3842Y8546D01*
X3950Y8532D01*
X4058Y8546D01*
X4159Y8588D01*
X4246Y8654D01*
X4312Y8741D01*
X4354Y8842D01*
X4368Y8949D01*
X4369Y8952D01*
X4370Y8991D01*
X4373Y9026D01*
X4377Y9058D01*
X4384Y9088D01*
X4392Y9116D01*
X4402Y9141D01*
X4413Y9165D01*
X4426Y9186D01*
X4441Y9206D01*
X4460Y9227D01*
X4461Y9230D01*
X4668Y9437D01*
X18807D01*
X18817Y9387D01*
X18721Y9347D01*
X18626Y9274D01*
X18553Y9179D01*
X18507Y9069D01*
X18505Y9050D01*
X18950D01*
X19395D01*
X19393Y9069D01*
X19347Y9179D01*
X19274Y9274D01*
X19179Y9347D01*
X19083Y9387D01*
X19093Y9437D01*
X19232D01*
X19439Y9230D01*
X19440Y9227D01*
X19459Y9206D01*
X19474Y9186D01*
X19487Y9165D01*
X19498Y9141D01*
X19508Y9116D01*
X19516Y9088D01*
X19523Y9058D01*
X19527Y9026D01*
X19530Y8991D01*
X19531Y8952D01*
X19532Y8949D01*
X19546Y8842D01*
X19588Y8741D01*
X19654Y8655D01*
X19655Y8652D01*
X19682Y8624D01*
X19705Y8598D01*
X19724Y8572D01*
X19741Y8546D01*
X19755Y8521D01*
X19766Y8496D01*
X19771Y8480D01*
X19765Y8461D01*
X19755Y8431D01*
X19741Y8402D01*
X19726Y8374D01*
X19707Y8348D01*
X19686Y8321D01*
X19661Y8294D01*
X19660Y8290D01*
X19458Y8089D01*
X18982D01*
X18978Y8091D01*
X18908Y8093D01*
X18882Y8095D01*
X18860Y8098D01*
X18844Y8102D01*
X18837Y8105D01*
Y8143D01*
X18785D01*
X18776Y8147D01*
X18770Y8144D01*
X18764Y8146D01*
X18760Y8143D01*
X18442D01*
X18439Y8145D01*
X18431Y8144D01*
X18424Y8147D01*
X18415Y8143D01*
X18363D01*
Y8112D01*
X18359Y8111D01*
X18344Y8108D01*
X18271Y8102D01*
X18252Y8104D01*
X18226Y8106D01*
X18205Y8110D01*
X18190Y8115D01*
X18181Y8118D01*
X18180Y8119D01*
X18180Y8119D01*
Y8165D01*
X18128D01*
X18119Y8169D01*
X18114Y8167D01*
X18109Y8168D01*
X18104Y8165D01*
X17797D01*
X17793Y8168D01*
X17787Y8167D01*
X17781Y8169D01*
X17772Y8165D01*
X17720D01*
Y8126D01*
X17713Y8123D01*
X17697Y8120D01*
X17676Y8116D01*
X17646Y8114D01*
X17625Y8116D01*
X17603Y8120D01*
X17587Y8123D01*
X17580Y8126D01*
Y8165D01*
X17534D01*
X17533Y8166D01*
X17533Y8166D01*
X17529Y8176D01*
X17524Y8191D01*
X17521Y8211D01*
X17516Y8270D01*
X17515Y8305D01*
X17513Y8309D01*
Y8318D01*
X17501Y8381D01*
X17465Y8434D01*
X17348Y8551D01*
X17295Y8586D01*
X17251Y8595D01*
X17235Y8646D01*
X17246Y8654D01*
X17312Y8741D01*
X17354Y8842D01*
X17368Y8950D01*
X17354Y9058D01*
X17312Y9159D01*
X17246Y9246D01*
X17159Y9312D01*
X17058Y9354D01*
X16950Y9368D01*
X16842Y9354D01*
X16741Y9312D01*
X16654Y9246D01*
X16588Y9159D01*
X16546Y9058D01*
X16532Y8950D01*
X16546Y8842D01*
X16588Y8741D01*
X16654Y8654D01*
X16665Y8646D01*
X16649Y8599D01*
X16251D01*
X16235Y8646D01*
X16246Y8654D01*
X16312Y8741D01*
X16354Y8842D01*
X16368Y8950D01*
X16354Y9058D01*
X16312Y9159D01*
X16246Y9246D01*
X16159Y9312D01*
X16058Y9354D01*
X15950Y9368D01*
X15842Y9354D01*
X15741Y9312D01*
X15654Y9246D01*
X15588Y9159D01*
X15546Y9058D01*
X15532Y8950D01*
X15546Y8842D01*
X15588Y8741D01*
X15654Y8654D01*
X15741Y8588D01*
X15842Y8546D01*
X15950Y8532D01*
X15964Y8534D01*
X15986Y8489D01*
X15935Y8438D01*
X15899Y8385D01*
X15887Y8322D01*
Y8309D01*
X15885Y8305D01*
X15884Y8269D01*
X15883Y8238D01*
X15880Y8212D01*
X15876Y8191D01*
X15871Y8176D01*
X15868Y8166D01*
X15867Y8166D01*
X15866Y8165D01*
X15820D01*
Y8113D01*
X15816Y8104D01*
X15818Y8099D01*
X15817Y8094D01*
X15820Y8089D01*
Y7754D01*
X15677D01*
Y7826D01*
X15400D01*
X15123D01*
Y7738D01*
X15098Y7721D01*
X15098Y7721D01*
X14468Y7091D01*
X14461Y7088D01*
X14454Y7082D01*
X14449Y7077D01*
X14438Y7068D01*
X14435Y7066D01*
X14432Y7064D01*
X14431Y7063D01*
X14430Y7063D01*
X14429Y7063D01*
X14428Y7062D01*
X14425Y7060D01*
X14419Y7056D01*
X14392Y7051D01*
X14339Y7015D01*
X14303Y6962D01*
X14291Y6900D01*
X14303Y6838D01*
X14339Y6785D01*
X14392Y6749D01*
X14454Y6737D01*
X14516Y6749D01*
X14569Y6785D01*
X14605Y6838D01*
X14617Y6900D01*
X14615Y6910D01*
X14616Y6911D01*
X14616Y6911D01*
X14616Y6911D01*
X14617Y6912D01*
X14617Y6914D01*
X14617Y6915D01*
X14617Y6915D01*
X14618Y6916D01*
X14619Y6918D01*
X14621Y6921D01*
X14629Y6931D01*
X14635Y6937D01*
X14637Y6941D01*
X14641Y6944D01*
X14642Y6948D01*
X14862Y7168D01*
X14908Y7149D01*
Y6938D01*
X14802Y6832D01*
X14795Y6829D01*
X14790Y6825D01*
X14788Y6823D01*
X14786Y6822D01*
X14783Y6820D01*
X14779Y6819D01*
X14775Y6817D01*
X14770Y6816D01*
X14765Y6816D01*
X14759Y6815D01*
X14750Y6815D01*
X14742Y6812D01*
X14688Y6801D01*
X14635Y6765D01*
X14599Y6712D01*
X14587Y6650D01*
X14599Y6588D01*
X14630Y6541D01*
X14633Y6534D01*
X14639Y6527D01*
X14643Y6522D01*
X14647Y6518D01*
X14649Y6514D01*
X14651Y6510D01*
X14653Y6507D01*
X14654Y6504D01*
X14654Y6501D01*
X14655Y6498D01*
X14655Y6492D01*
X14658Y6485D01*
Y5273D01*
X14627Y5242D01*
X14441D01*
X14428Y5263D01*
X14420Y5292D01*
X14451Y5338D01*
X14463Y5400D01*
X14451Y5462D01*
X14415Y5515D01*
X14362Y5551D01*
X14300Y5563D01*
X14238Y5551D01*
X14191Y5520D01*
X14184Y5517D01*
X14177Y5511D01*
X14172Y5507D01*
X14168Y5503D01*
X14164Y5501D01*
X14160Y5499D01*
X14157Y5497D01*
X14154Y5496D01*
X14151Y5496D01*
X14148Y5495D01*
X14142Y5495D01*
X14135Y5492D01*
X13922D01*
X13915Y5495D01*
X13915Y5495D01*
Y5649D01*
X13086D01*
Y5519D01*
X13085Y5519D01*
X13078Y5516D01*
X12995D01*
X12988Y5519D01*
X12987Y5519D01*
Y5642D01*
X12513D01*
Y5207D01*
X12987D01*
Y5329D01*
X12988Y5329D01*
X12995Y5333D01*
X13078D01*
X13085Y5329D01*
X13086Y5329D01*
Y5135D01*
X13840D01*
X13859Y5089D01*
X13612Y4842D01*
X12423D01*
X12403Y4880D01*
X12402Y4892D01*
X12413Y4950D01*
X12401Y5012D01*
X12365Y5065D01*
X12312Y5101D01*
X12258Y5112D01*
X12250Y5115D01*
X12241Y5115D01*
X12235Y5116D01*
X12230Y5116D01*
X12225Y5117D01*
X12221Y5119D01*
X12217Y5120D01*
X12214Y5122D01*
X12212Y5123D01*
X12210Y5125D01*
X12205Y5129D01*
X12198Y5132D01*
X11322Y6008D01*
X11327Y6035D01*
X11340Y6058D01*
X11753D01*
X11789Y6065D01*
X11818Y6085D01*
X12841Y7108D01*
X14035D01*
X14042Y7105D01*
X14048Y7105D01*
X14051Y7104D01*
X14054Y7104D01*
X14057Y7103D01*
X14060Y7101D01*
X14064Y7099D01*
X14068Y7097D01*
X14072Y7093D01*
X14077Y7089D01*
X14084Y7083D01*
X14091Y7080D01*
X14138Y7049D01*
X14200Y7037D01*
X14262Y7049D01*
X14315Y7085D01*
X14351Y7138D01*
X14363Y7200D01*
X14351Y7262D01*
X14315Y7315D01*
X14301Y7325D01*
Y7375D01*
X14315Y7385D01*
X14351Y7438D01*
X14363Y7500D01*
X14351Y7562D01*
X14315Y7615D01*
X14262Y7651D01*
X14200Y7663D01*
X14138Y7651D01*
X14091Y7620D01*
X14084Y7617D01*
X14077Y7611D01*
X14072Y7607D01*
X14068Y7603D01*
X14064Y7601D01*
X14060Y7599D01*
X14057Y7597D01*
X14054Y7596D01*
X14051Y7596D01*
X14048Y7595D01*
X14042Y7595D01*
X14035Y7592D01*
X12934D01*
X12899Y7585D01*
X12869Y7565D01*
X11746Y6442D01*
X11291D01*
X11278Y6463D01*
X11270Y6492D01*
X11301Y6538D01*
X11313Y6600D01*
X11301Y6662D01*
X11265Y6715D01*
X11212Y6751D01*
X11150Y6763D01*
X11088Y6751D01*
X11041Y6720D01*
X11034Y6717D01*
X11027Y6711D01*
X11022Y6707D01*
X11018Y6703D01*
X11014Y6701D01*
X11010Y6699D01*
X11007Y6697D01*
X11004Y6696D01*
X11001Y6696D01*
X10998Y6695D01*
X10992Y6695D01*
X10985Y6692D01*
X9838D01*
X9732Y6798D01*
X9729Y6805D01*
X9725Y6810D01*
X9723Y6812D01*
X9722Y6814D01*
X9720Y6817D01*
X9719Y6821D01*
X9717Y6825D01*
X9716Y6830D01*
X9716Y6835D01*
X9715Y6841D01*
X9715Y6850D01*
X9712Y6858D01*
X9701Y6912D01*
X9670Y6959D01*
X9667Y6966D01*
X9661Y6973D01*
X9657Y6978D01*
X9653Y6982D01*
X9651Y6986D01*
X9649Y6990D01*
X9647Y6993D01*
X9646Y6996D01*
X9646Y6999D01*
X9645Y7002D01*
X9645Y7008D01*
X9642Y7015D01*
Y7077D01*
X9645Y7084D01*
X9645Y7085D01*
X9780D01*
Y7522D01*
X9320D01*
Y7085D01*
X9455D01*
X9455Y7084D01*
X9458Y7077D01*
Y7015D01*
X9455Y7008D01*
X9455Y7002D01*
X9454Y6999D01*
X9454Y6996D01*
X9453Y6993D01*
X9451Y6990D01*
X9449Y6986D01*
X9447Y6982D01*
X9443Y6978D01*
X9439Y6973D01*
X9433Y6966D01*
X9430Y6959D01*
X9399Y6912D01*
X9387Y6850D01*
X9399Y6788D01*
X9435Y6735D01*
X9488Y6699D01*
X9542Y6688D01*
X9550Y6685D01*
X9559Y6685D01*
X9565Y6684D01*
X9570Y6684D01*
X9575Y6683D01*
X9579Y6681D01*
X9583Y6680D01*
X9586Y6678D01*
X9588Y6677D01*
X9590Y6675D01*
X9595Y6671D01*
X9602Y6668D01*
X9735Y6535D01*
X9765Y6515D01*
X9800Y6508D01*
X10409D01*
X10422Y6487D01*
X10430Y6458D01*
X10399Y6412D01*
X10388Y6357D01*
X10379Y6340D01*
X10360Y6321D01*
X10343Y6312D01*
X10288Y6301D01*
X10235Y6265D01*
X10199Y6212D01*
X10187Y6150D01*
X10198Y6092D01*
X10197Y6080D01*
X10177Y6042D01*
X9588D01*
X8992Y6638D01*
Y6685D01*
X8995Y6692D01*
X8995Y6698D01*
X8996Y6701D01*
X8996Y6704D01*
X8997Y6707D01*
X8999Y6710D01*
X9001Y6714D01*
X9003Y6718D01*
X9007Y6722D01*
X9011Y6727D01*
X9017Y6734D01*
X9020Y6741D01*
X9051Y6788D01*
X9063Y6850D01*
X9051Y6912D01*
X9020Y6959D01*
X9017Y6966D01*
X9011Y6973D01*
X9007Y6978D01*
X9003Y6982D01*
X9001Y6986D01*
X8999Y6990D01*
X8997Y6993D01*
X8996Y6996D01*
X8996Y6999D01*
X8995Y7002D01*
X8995Y7008D01*
X8992Y7015D01*
Y7077D01*
X8995Y7084D01*
X8995Y7085D01*
X9130D01*
Y7522D01*
X8670D01*
Y7085D01*
X8805D01*
X8805Y7084D01*
X8808Y7077D01*
Y7015D01*
X8805Y7008D01*
X8805Y7002D01*
X8804Y6999D01*
X8804Y6996D01*
X8803Y6993D01*
X8801Y6990D01*
X8799Y6986D01*
X8797Y6982D01*
X8793Y6978D01*
X8789Y6973D01*
X8783Y6966D01*
X8780Y6959D01*
X8749Y6912D01*
X8737Y6850D01*
X8749Y6788D01*
X8780Y6741D01*
X8783Y6734D01*
X8789Y6727D01*
X8793Y6722D01*
X8797Y6718D01*
X8799Y6714D01*
X8801Y6710D01*
X8803Y6707D01*
X8804Y6704D01*
X8804Y6701D01*
X8805Y6698D01*
X8805Y6692D01*
X8808Y6685D01*
Y6600D01*
X8815Y6565D01*
X8835Y6535D01*
X9401Y5969D01*
X9382Y5923D01*
X9008D01*
X8413Y6518D01*
Y6963D01*
X8415Y6967D01*
X8416Y7003D01*
X8418Y7034D01*
X8421Y7060D01*
X8425Y7080D01*
X8430Y7095D01*
X8434Y7103D01*
X8434Y7104D01*
X8435Y7104D01*
X8440Y7107D01*
X8487D01*
Y7159D01*
X8491Y7168D01*
X8489Y7172D01*
X8490Y7177D01*
X8487Y7182D01*
Y7542D01*
X8090D01*
X8086Y7545D01*
X8080Y7543D01*
X8074Y7546D01*
X8065Y7542D01*
X8013D01*
Y7503D01*
X8006Y7501D01*
X7990Y7497D01*
X7969Y7494D01*
X7909Y7490D01*
X7873Y7489D01*
X7869Y7488D01*
X7724D01*
X7662Y7475D01*
X7609Y7440D01*
X7582Y7413D01*
X7450D01*
X7388Y7401D01*
X7335Y7365D01*
X7299Y7312D01*
X7287Y7250D01*
X7299Y7188D01*
X7335Y7135D01*
X7388Y7099D01*
X7450Y7087D01*
X7650D01*
X7712Y7099D01*
X7765Y7135D01*
X7792Y7161D01*
X7868D01*
X7872Y7159D01*
X7942Y7157D01*
X7968Y7155D01*
X7990Y7152D01*
X8006Y7148D01*
X8013Y7146D01*
Y7107D01*
X8060D01*
X8065Y7104D01*
X8066Y7104D01*
X8066Y7103D01*
X8070Y7095D01*
X8075Y7080D01*
X8079Y7061D01*
X8084Y7002D01*
X8085Y6967D01*
X8087Y6963D01*
Y6450D01*
X8099Y6388D01*
X8135Y6335D01*
X8825Y5644D01*
X8878Y5609D01*
X8941Y5596D01*
X10773D01*
X10780Y5573D01*
X10781Y5546D01*
X10735Y5515D01*
X10699Y5462D01*
X10687Y5400D01*
X10699Y5338D01*
X10735Y5285D01*
X10788Y5249D01*
X10850Y5237D01*
X10912Y5249D01*
X10959Y5280D01*
X10966Y5283D01*
X10973Y5289D01*
X10978Y5293D01*
X10982Y5297D01*
X10986Y5299D01*
X10990Y5301D01*
X10993Y5303D01*
X10996Y5304D01*
X10999Y5304D01*
X11002Y5305D01*
X11008Y5305D01*
X11015Y5308D01*
X11162D01*
X11785Y4685D01*
X11815Y4665D01*
X11850Y4658D01*
X13086D01*
Y4471D01*
X13085Y4471D01*
X13078Y4467D01*
X12995D01*
X12988Y4471D01*
X12987Y4471D01*
Y4593D01*
X12513D01*
Y4158D01*
X12987D01*
Y4281D01*
X12988Y4281D01*
X12995Y4284D01*
X13078D01*
X13085Y4281D01*
X13086Y4281D01*
Y4151D01*
X13915D01*
Y4316D01*
X13925Y4321D01*
X13944Y4325D01*
X13974Y4344D01*
X14165Y4535D01*
X14185Y4565D01*
X14192Y4600D01*
Y4685D01*
X14195Y4692D01*
X14195Y4698D01*
X14196Y4701D01*
X14196Y4704D01*
X14197Y4707D01*
X14199Y4710D01*
X14201Y4714D01*
X14203Y4718D01*
X14207Y4722D01*
X14211Y4727D01*
X14217Y4734D01*
X14220Y4741D01*
X14251Y4788D01*
X14263Y4850D01*
X14251Y4912D01*
X14215Y4965D01*
X14162Y5001D01*
X14125Y5008D01*
X14130Y5058D01*
X14665D01*
X14700Y5065D01*
X14730Y5085D01*
X14815Y5170D01*
X14835Y5200D01*
X14842Y5235D01*
Y6485D01*
X14845Y6492D01*
X14845Y6498D01*
X14846Y6501D01*
X14846Y6504D01*
X14847Y6507D01*
X14849Y6510D01*
X14851Y6514D01*
X14853Y6518D01*
X14857Y6522D01*
X14861Y6527D01*
X14867Y6534D01*
X14870Y6541D01*
X14901Y6588D01*
X14912Y6642D01*
X14915Y6650D01*
X14915Y6659D01*
X14916Y6665D01*
X14916Y6670D01*
X14917Y6675D01*
X14919Y6679D01*
X14920Y6683D01*
X14922Y6686D01*
X14923Y6688D01*
X14925Y6690D01*
X14929Y6695D01*
X14932Y6702D01*
X15065Y6835D01*
X15085Y6865D01*
X15092Y6900D01*
Y7187D01*
X15113Y7203D01*
X15163Y7178D01*
Y7157D01*
X15637D01*
Y7279D01*
X15638Y7279D01*
X15645Y7283D01*
X15812D01*
X15819Y7279D01*
X15820Y7279D01*
Y7135D01*
X16280D01*
Y7296D01*
X16326Y7315D01*
X16346Y7295D01*
X16346Y7295D01*
X16383Y7271D01*
X16411Y7265D01*
X16424Y7259D01*
X16441Y7259D01*
X16453Y7258D01*
X16462Y7256D01*
X16463Y7256D01*
Y7157D01*
X16862D01*
X16868Y7154D01*
X16872Y7155D01*
X16876Y7153D01*
X16885Y7157D01*
X16937D01*
Y7204D01*
X16938Y7206D01*
X16941Y7207D01*
X16951Y7211D01*
X16965Y7214D01*
X17010Y7218D01*
X17028Y7219D01*
X17048Y7218D01*
X17071Y7216D01*
X17089Y7213D01*
X17103Y7209D01*
X17112Y7206D01*
X17116Y7203D01*
X17117Y7197D01*
X17120Y7191D01*
Y7135D01*
X17580D01*
Y7572D01*
X17195D01*
X17189Y7575D01*
X17185Y7574D01*
X17181Y7576D01*
X17172Y7572D01*
X17120D01*
Y7525D01*
X17118Y7522D01*
X17116Y7521D01*
X17106Y7517D01*
X17092Y7514D01*
X17047Y7509D01*
X17029Y7509D01*
X17009Y7510D01*
X16986Y7512D01*
X16968Y7515D01*
X16954Y7518D01*
X16944Y7522D01*
X16940Y7525D01*
X16939Y7531D01*
X16937Y7535D01*
Y7592D01*
X16463Y7592D01*
X16423Y7617D01*
X16422Y7619D01*
X16446Y7667D01*
X16447Y7668D01*
X16462Y7668D01*
X16600D01*
Y7826D01*
X16423D01*
Y7709D01*
X16423Y7694D01*
X16373Y7674D01*
X16325Y7721D01*
X16289Y7746D01*
X16280Y7747D01*
Y8089D01*
X16283Y8094D01*
X16282Y8099D01*
X16284Y8104D01*
X16280Y8113D01*
Y8165D01*
X16234D01*
X16233Y8166D01*
X16233Y8166D01*
X16229Y8176D01*
X16224Y8191D01*
X16221Y8211D01*
X16219Y8227D01*
X16261Y8272D01*
X17141D01*
X17162Y8255D01*
X17182Y8229D01*
X17180Y8212D01*
X17176Y8191D01*
X17171Y8176D01*
X17168Y8166D01*
X17167Y8166D01*
X17166Y8165D01*
X17120D01*
Y8113D01*
X17116Y8104D01*
X17118Y8099D01*
X17117Y8094D01*
X17120Y8089D01*
Y7728D01*
X17503D01*
X17507Y7725D01*
X17513Y7726D01*
X17519Y7724D01*
X17528Y7728D01*
X17580D01*
Y7767D01*
X17587Y7770D01*
X17603Y7774D01*
X17624Y7777D01*
X17654Y7779D01*
X17675Y7777D01*
X17697Y7774D01*
X17713Y7770D01*
X17720Y7767D01*
Y7728D01*
X17772D01*
X17781Y7724D01*
X17787Y7726D01*
X17793Y7725D01*
X17797Y7728D01*
X18102D01*
X18105Y7726D01*
X18112Y7727D01*
X18119Y7724D01*
X18128Y7728D01*
X18180D01*
Y7760D01*
X18184Y7761D01*
X18200Y7764D01*
X18268Y7769D01*
X18291Y7769D01*
X18317Y7766D01*
X18338Y7762D01*
X18353Y7758D01*
X18362Y7754D01*
X18363Y7754D01*
Y7708D01*
X18415D01*
X18424Y7704D01*
X18429Y7706D01*
X18434Y7705D01*
X18439Y7708D01*
X18760D01*
X18764Y7705D01*
X18770Y7707D01*
X18776Y7704D01*
X18785Y7708D01*
X18837D01*
Y7747D01*
X18844Y7749D01*
X18860Y7753D01*
X18881Y7756D01*
X18941Y7760D01*
X18977Y7761D01*
X18981Y7762D01*
X19526D01*
X19588Y7775D01*
X19641Y7810D01*
X19848Y8018D01*
X19852Y8019D01*
X19877Y8042D01*
X19898Y8056D01*
X19917Y8066D01*
X19934Y8071D01*
X19950Y8073D01*
X19966Y8071D01*
X19983Y8066D01*
X20002Y8056D01*
X20023Y8042D01*
X20048Y8019D01*
X20052Y8018D01*
X20237Y7832D01*
Y6989D01*
X20235Y6985D01*
X20234Y6949D01*
X20232Y6919D01*
X20227Y6895D01*
X20222Y6875D01*
X20217Y6862D01*
X20212Y6854D01*
X20208Y6850D01*
X20207Y6849D01*
X20205Y6848D01*
X20193Y6847D01*
X20189Y6845D01*
X20005D01*
Y6055D01*
X20795D01*
Y6239D01*
X20797Y6243D01*
X20798Y6255D01*
X20799Y6257D01*
X20800Y6258D01*
X20804Y6262D01*
X20812Y6267D01*
X20825Y6272D01*
X20845Y6277D01*
X20869Y6282D01*
X20899Y6284D01*
X20935Y6285D01*
X20939Y6287D01*
X21391D01*
X21394Y6285D01*
X21422Y6284D01*
X21446Y6280D01*
X21471Y6274D01*
X21496Y6266D01*
X21521Y6255D01*
X21546Y6241D01*
X21572Y6224D01*
X21598Y6205D01*
X21624Y6182D01*
X21652Y6155D01*
X21655Y6154D01*
X21741Y6088D01*
X21842Y6046D01*
X21949Y6032D01*
X21952Y6031D01*
X21991Y6030D01*
X22026Y6027D01*
X22058Y6023D01*
X22088Y6017D01*
X22115Y6008D01*
X22141Y5999D01*
X22164Y5987D01*
X22186Y5974D01*
X22206Y5959D01*
X22226Y5941D01*
X22230Y5939D01*
X22301Y5868D01*
Y5816D01*
X22251Y5792D01*
X22179Y5847D01*
X22069Y5893D01*
X22050Y5895D01*
Y5450D01*
Y5005D01*
X22069Y5007D01*
X22179Y5053D01*
X22251Y5108D01*
X22301Y5084D01*
Y4751D01*
X22254Y4735D01*
X22246Y4746D01*
X22159Y4812D01*
X22058Y4854D01*
X21950Y4868D01*
X21842Y4854D01*
X21741Y4812D01*
X21655Y4746D01*
X21588Y4659D01*
X21546Y4558D01*
X21532Y4451D01*
X21531Y4447D01*
X21529Y4337D01*
X21522Y4247D01*
X21517Y4212D01*
X21510Y4181D01*
X21503Y4156D01*
X21495Y4137D01*
X21488Y4124D01*
X21478Y4112D01*
X21477Y4106D01*
X21135Y3765D01*
X21115Y3735D01*
X21108Y3700D01*
Y3338D01*
X20862Y3092D01*
X20664D01*
X20647Y3142D01*
X20681Y3169D01*
X20745Y3251D01*
X20784Y3347D01*
X20798Y3450D01*
X20784Y3553D01*
X20745Y3649D01*
X20681Y3731D01*
X20599Y3795D01*
X20503Y3834D01*
X20400Y3848D01*
X20297Y3834D01*
X20201Y3795D01*
X20119Y3731D01*
X20055Y3649D01*
X20016Y3553D01*
X20002Y3450D01*
X20014Y3359D01*
X20013Y3358D01*
X20014Y3355D01*
X20016Y3347D01*
X20016Y3346D01*
X20015Y3342D01*
X20022Y3315D01*
X20027Y3291D01*
X20029Y3270D01*
X20029Y3251D01*
X20028Y3235D01*
X20025Y3221D01*
X20021Y3208D01*
X20018Y3202D01*
X19340D01*
X19320Y3248D01*
X20075Y4002D01*
X20080Y4004D01*
X20091Y4012D01*
X20102Y4018D01*
X20119Y4025D01*
X20143Y4032D01*
X20172Y4038D01*
X20205Y4042D01*
X20342Y4050D01*
X20397Y4050D01*
X20401Y4052D01*
X20503Y4066D01*
X20599Y4105D01*
X20681Y4169D01*
X20745Y4251D01*
X20784Y4347D01*
X20798Y4450D01*
X20784Y4553D01*
X20745Y4649D01*
X20681Y4731D01*
X20599Y4795D01*
X20503Y4834D01*
X20400Y4848D01*
X20297Y4834D01*
X20201Y4795D01*
X20119Y4731D01*
X20055Y4649D01*
X20016Y4553D01*
X20002Y4452D01*
X20000Y4448D01*
X19999Y4342D01*
X19992Y4256D01*
X19988Y4222D01*
X19982Y4193D01*
X19975Y4169D01*
X19968Y4152D01*
X19962Y4141D01*
X19954Y4130D01*
X19952Y4125D01*
X19164Y3337D01*
X15666D01*
X15645Y3387D01*
X15779Y3521D01*
X15779Y3521D01*
X15804Y3557D01*
X15812Y3600D01*
Y3845D01*
X15815Y3851D01*
X15816Y3869D01*
X15816Y3875D01*
X15817Y3880D01*
X15818Y3883D01*
X15818Y3885D01*
X15819Y3885D01*
X15819Y3886D01*
X15820Y3888D01*
X15820Y3889D01*
X15820Y3889D01*
X15820Y3890D01*
X15821Y3892D01*
X15821Y3894D01*
X15851Y3938D01*
X15863Y4000D01*
X15851Y4062D01*
X15815Y4115D01*
X15762Y4151D01*
X15700Y4163D01*
X15638Y4151D01*
X15585Y4115D01*
X15549Y4062D01*
X15537Y4000D01*
X15549Y3938D01*
X15579Y3894D01*
X15579Y3892D01*
X15580Y3890D01*
X15580Y3889D01*
X15580Y3889D01*
X15580Y3888D01*
X15581Y3886D01*
X15581Y3885D01*
X15582Y3885D01*
X15582Y3883D01*
X15583Y3880D01*
X15584Y3876D01*
X15585Y3861D01*
X15585Y3852D01*
X15588Y3846D01*
Y3646D01*
X15479Y3538D01*
X13351D01*
X13345Y3541D01*
X13327Y3541D01*
X13321Y3542D01*
X13317Y3543D01*
X13313Y3543D01*
X13311Y3544D01*
X13311Y3544D01*
X13310Y3544D01*
X13308Y3546D01*
X13308Y3546D01*
X13307Y3546D01*
X13306Y3546D01*
X13305Y3546D01*
X13303Y3547D01*
X13259Y3576D01*
X13196Y3589D01*
X13134Y3576D01*
X13081Y3541D01*
X13046Y3488D01*
X13033Y3426D01*
X13046Y3363D01*
X13081Y3310D01*
X13082Y3304D01*
X11339Y1561D01*
X11320Y1533D01*
X11313Y1500D01*
Y1290D01*
X11263Y1273D01*
X11246Y1295D01*
X11245Y1298D01*
X11168Y1378D01*
X11109Y1446D01*
X11088Y1475D01*
X11071Y1502D01*
X11058Y1525D01*
X11050Y1543D01*
X11046Y1557D01*
X11045Y1573D01*
X11042Y1578D01*
Y1712D01*
X11615Y2285D01*
X11635Y2315D01*
X11642Y2350D01*
Y2527D01*
X11645Y2534D01*
X11645Y2535D01*
X11780D01*
Y2972D01*
Y3489D01*
X11783Y3494D01*
X11782Y3499D01*
X11784Y3504D01*
X11780Y3513D01*
Y3565D01*
X11734D01*
X11733Y3566D01*
X11732Y3566D01*
X11729Y3576D01*
X11724Y3591D01*
X11721Y3611D01*
X11716Y3670D01*
X11715Y3705D01*
X11713Y3709D01*
Y4000D01*
X11701Y4062D01*
X11665Y4115D01*
X10965Y4815D01*
X10912Y4851D01*
X10850Y4863D01*
X10788Y4851D01*
X10735Y4815D01*
X10699Y4762D01*
X10687Y4700D01*
X10699Y4638D01*
X10735Y4585D01*
X11387Y3932D01*
Y3709D01*
X11385Y3705D01*
X11384Y3669D01*
X11383Y3638D01*
X11380Y3612D01*
X11376Y3591D01*
X11371Y3576D01*
X11367Y3566D01*
X11367Y3566D01*
X11366Y3565D01*
X11320D01*
Y3513D01*
X11316Y3504D01*
X11318Y3499D01*
X11317Y3494D01*
X11320Y3489D01*
Y3142D01*
X11180D01*
Y3565D01*
X11045D01*
X11045Y3566D01*
X11042Y3573D01*
Y4100D01*
X11035Y4135D01*
X11015Y4165D01*
X9915Y5265D01*
X9885Y5285D01*
X9850Y5292D01*
X7541D01*
X7528Y5313D01*
X7520Y5342D01*
X7551Y5388D01*
X7563Y5450D01*
X7551Y5512D01*
X7515Y5565D01*
X7462Y5601D01*
X7400Y5613D01*
X7338Y5601D01*
X7291Y5570D01*
X7284Y5567D01*
X7277Y5561D01*
X7272Y5557D01*
X7268Y5553D01*
X7264Y5551D01*
X7260Y5549D01*
X7257Y5547D01*
X7254Y5546D01*
X7251Y5546D01*
X7248Y5545D01*
X7242Y5545D01*
X7235Y5542D01*
X5315D01*
X5308Y5545D01*
X5302Y5545D01*
X5299Y5546D01*
X5296Y5546D01*
X5293Y5547D01*
X5290Y5549D01*
X5286Y5551D01*
X5282Y5553D01*
X5278Y5557D01*
X5273Y5561D01*
X5266Y5567D01*
X5259Y5570D01*
X5212Y5601D01*
X5150Y5613D01*
X5088Y5601D01*
X5035Y5565D01*
X4999Y5512D01*
X4987Y5450D01*
X4999Y5388D01*
X5030Y5342D01*
X5022Y5313D01*
X5009Y5292D01*
X3841D01*
X3828Y5313D01*
X3820Y5342D01*
X3851Y5388D01*
X3863Y5450D01*
Y7632D01*
X4670Y8439D01*
X4673Y8440D01*
X4694Y8459D01*
X4714Y8474D01*
X4735Y8487D01*
X4759Y8498D01*
X4784Y8508D01*
X4812Y8516D01*
X4842Y8523D01*
X4874Y8527D01*
X4909Y8530D01*
X4948Y8531D01*
X4951Y8532D01*
X5058Y8546D01*
X5159Y8588D01*
X5246Y8654D01*
X5312Y8741D01*
X5354Y8842D01*
X5368Y8950D01*
X5354Y9058D01*
X5312Y9159D01*
X5246Y9246D01*
X5159Y9312D01*
X5058Y9354D01*
X4950Y9368D01*
X4842Y9354D01*
X4741Y9312D01*
X4654Y9246D01*
X4588Y9159D01*
X4546Y9058D01*
X4532Y8951D01*
X4531Y8948D01*
X4530Y8909D01*
X4527Y8874D01*
X4523Y8842D01*
X4516Y8812D01*
X4508Y8784D01*
X4498Y8759D01*
X4487Y8735D01*
X4474Y8714D01*
X4459Y8694D01*
X4440Y8673D01*
X4439Y8670D01*
X3585Y7815D01*
X3549Y7762D01*
X3537Y7700D01*
Y5450D01*
X3549Y5388D01*
X3580Y5342D01*
X3572Y5313D01*
X3559Y5292D01*
X3415D01*
X3408Y5295D01*
X3402Y5295D01*
X3399Y5296D01*
X3396Y5296D01*
X3393Y5297D01*
X3390Y5299D01*
X3386Y5301D01*
X3382Y5303D01*
X3378Y5307D01*
X3373Y5311D01*
X3366Y5317D01*
X3359Y5320D01*
X3312Y5351D01*
X3250Y5363D01*
X3188Y5351D01*
X3135Y5315D01*
X3099Y5262D01*
X3087Y5200D01*
X3099Y5138D01*
X3116Y5113D01*
X3131Y5075D01*
X3116Y5037D01*
X3099Y5012D01*
X3087Y4950D01*
X3099Y4888D01*
X3135Y4835D01*
X3188Y4799D01*
X3250Y4787D01*
X3312Y4799D01*
X3359Y4830D01*
X3366Y4833D01*
X3373Y4839D01*
X3378Y4843D01*
X3382Y4847D01*
X3386Y4849D01*
X3390Y4851D01*
X3393Y4853D01*
X3396Y4854D01*
X3399Y4854D01*
X3402Y4855D01*
X3408Y4855D01*
X3415Y4858D01*
X6240D01*
X6259Y4812D01*
X5620Y4173D01*
X5607Y4174D01*
X5583Y4178D01*
X5564Y4183D01*
X5550Y4189D01*
X5542Y4194D01*
X5538Y4197D01*
X5537Y4199D01*
X5536Y4201D01*
X5535Y4212D01*
X5533Y4216D01*
Y4282D01*
X4429D01*
Y4216D01*
X4426Y4212D01*
X4425Y4201D01*
X4424Y4199D01*
X4423Y4197D01*
X4420Y4194D01*
X4411Y4189D01*
X4398Y4183D01*
X4379Y4178D01*
X4354Y4174D01*
X4324Y4171D01*
X4288Y4170D01*
X4284Y4169D01*
X4105D01*
X4043Y4156D01*
X3990Y4121D01*
X3785Y3915D01*
X3749Y3862D01*
X3737Y3800D01*
Y2987D01*
X3735Y2983D01*
X3734Y2947D01*
X3732Y2916D01*
X3729Y2890D01*
X3725Y2870D01*
X3720Y2855D01*
X3716Y2847D01*
X3716Y2846D01*
X3715Y2846D01*
X3710Y2843D01*
X3663D01*
Y2804D01*
X3656Y2802D01*
X3640Y2798D01*
X3619Y2795D01*
X3560Y2791D01*
X3508Y2793D01*
X3482Y2795D01*
X3460Y2798D01*
X3444Y2802D01*
X3437Y2804D01*
Y2843D01*
X3390D01*
X3385Y2846D01*
X3384Y2846D01*
X3384Y2847D01*
X3380Y2855D01*
X3375Y2870D01*
X3371Y2889D01*
X3366Y2948D01*
X3365Y2983D01*
X3363Y2987D01*
Y3132D01*
X3565Y3335D01*
X3601Y3388D01*
X3613Y3450D01*
Y3700D01*
X3601Y3762D01*
X3565Y3815D01*
X3512Y3851D01*
X3450Y3863D01*
X3388Y3851D01*
X3335Y3815D01*
X3299Y3762D01*
X3287Y3700D01*
Y3518D01*
X3085Y3315D01*
X3049Y3262D01*
X3037Y3200D01*
Y2987D01*
X3035Y2983D01*
X3034Y2947D01*
X3032Y2916D01*
X3029Y2890D01*
X3025Y2870D01*
X3020Y2855D01*
X3016Y2847D01*
X3016Y2846D01*
X3015Y2846D01*
X3010Y2843D01*
X2963D01*
Y2791D01*
X2959Y2782D01*
X2961Y2778D01*
X2960Y2773D01*
X2963Y2768D01*
Y2408D01*
X3360D01*
X3364Y2405D01*
X3370Y2407D01*
X3376Y2404D01*
X3385Y2408D01*
X3437D01*
Y2447D01*
X3444Y2449D01*
X3460Y2453D01*
X3481Y2456D01*
X3540Y2460D01*
X3592Y2458D01*
X3618Y2456D01*
X3640Y2453D01*
X3656Y2449D01*
X3663Y2447D01*
Y2408D01*
X3715D01*
X3724Y2404D01*
X3730Y2407D01*
X3736Y2405D01*
X3740Y2408D01*
X4137D01*
Y2768D01*
X4140Y2773D01*
X4139Y2778D01*
X4141Y2782D01*
X4137Y2791D01*
Y2843D01*
X4090D01*
X4085Y2846D01*
X4084Y2846D01*
X4084Y2847D01*
X4080Y2855D01*
X4075Y2870D01*
X4071Y2889D01*
X4066Y2948D01*
X4065Y2983D01*
X4063Y2987D01*
Y3732D01*
X4173Y3842D01*
X4284D01*
X4288Y3841D01*
X4324Y3840D01*
X4354Y3837D01*
X4379Y3833D01*
X4398Y3828D01*
X4411Y3822D01*
X4420Y3817D01*
X4423Y3814D01*
X4424Y3812D01*
X4425Y3810D01*
X4426Y3799D01*
X4429Y3795D01*
Y3729D01*
X5533D01*
Y3795D01*
X5535Y3799D01*
X5536Y3810D01*
X5537Y3812D01*
X5538Y3814D01*
X5542Y3817D01*
X5550Y3822D01*
X5564Y3828D01*
X5583Y3833D01*
X5607Y3837D01*
X5637Y3840D01*
X5673Y3841D01*
X5677Y3842D01*
X5683D01*
X5745Y3855D01*
X5798Y3890D01*
X6495Y4587D01*
X7652D01*
X7667Y4537D01*
X7635Y4515D01*
X7599Y4462D01*
X7587Y4400D01*
X7594Y4363D01*
X7560Y4313D01*
X6750D01*
X6688Y4301D01*
X6635Y4265D01*
X6599Y4212D01*
X6587Y4150D01*
X6599Y4088D01*
X6635Y4035D01*
X6688Y3999D01*
X6750Y3987D01*
X9432D01*
X9537Y3882D01*
Y3687D01*
X9535Y3683D01*
X9534Y3647D01*
X9532Y3616D01*
X9529Y3590D01*
X9525Y3570D01*
X9520Y3555D01*
X9516Y3547D01*
X9516Y3546D01*
X9515Y3546D01*
X9510Y3543D01*
X9463D01*
Y3505D01*
X9456Y3502D01*
X9440Y3498D01*
X9419Y3495D01*
X9360Y3491D01*
X9308Y3493D01*
X9282Y3495D01*
X9260Y3498D01*
X9244Y3502D01*
X9237Y3505D01*
Y3543D01*
X9185D01*
X9176Y3547D01*
X9170Y3544D01*
X9164Y3546D01*
X9160Y3543D01*
X8840D01*
X8836Y3546D01*
X8830Y3544D01*
X8824Y3547D01*
X8815Y3543D01*
X8763D01*
Y3505D01*
X8756Y3502D01*
X8740Y3498D01*
X8719Y3495D01*
X8660Y3491D01*
X8608Y3493D01*
X8582Y3495D01*
X8560Y3498D01*
X8544Y3502D01*
X8537Y3505D01*
Y3543D01*
X8485D01*
X8476Y3547D01*
X8470Y3544D01*
X8464Y3546D01*
X8460Y3543D01*
X8145D01*
X8144Y3544D01*
X8138Y3543D01*
X8133D01*
X8124Y3547D01*
X8115Y3543D01*
X8063D01*
Y3522D01*
X7962Y3515D01*
X7944Y3516D01*
X7914Y3518D01*
X7890Y3523D01*
X7871Y3528D01*
X7857Y3533D01*
X7849Y3538D01*
X7845Y3542D01*
X7844Y3543D01*
X7843Y3545D01*
X7842Y3557D01*
X7840Y3561D01*
Y3869D01*
X6799D01*
Y3311D01*
X6796Y3307D01*
X6795Y3295D01*
X6795Y3293D01*
X6793Y3292D01*
X6790Y3288D01*
X6781Y3283D01*
X6768Y3278D01*
X6749Y3273D01*
X6724Y3268D01*
X6694Y3266D01*
X6658Y3265D01*
X6654Y3263D01*
X5677D01*
X5673Y3265D01*
X5637Y3266D01*
X5607Y3268D01*
X5583Y3273D01*
X5564Y3278D01*
X5550Y3283D01*
X5542Y3288D01*
X5538Y3292D01*
X5537Y3293D01*
X5536Y3295D01*
X5535Y3307D01*
X5533Y3311D01*
Y3377D01*
X4429D01*
Y2823D01*
X5533D01*
Y2889D01*
X5535Y2893D01*
X5536Y2905D01*
X5537Y2907D01*
X5538Y2908D01*
X5542Y2912D01*
X5550Y2917D01*
X5564Y2922D01*
X5583Y2927D01*
X5607Y2932D01*
X5637Y2934D01*
X5673Y2935D01*
X5677Y2937D01*
X6654D01*
X6658Y2935D01*
X6694Y2934D01*
X6724Y2932D01*
X6749Y2927D01*
X6768Y2922D01*
X6781Y2917D01*
X6790Y2912D01*
X6793Y2908D01*
X6795Y2907D01*
X6795Y2905D01*
X6796Y2893D01*
X6799Y2889D01*
Y2331D01*
X7840D01*
Y3139D01*
X7842Y3143D01*
X7843Y3155D01*
X7844Y3157D01*
X7845Y3158D01*
X7849Y3162D01*
X7857Y3167D01*
X7871Y3172D01*
X7890Y3177D01*
X7914Y3182D01*
X7944Y3184D01*
X7954Y3184D01*
X7959Y3184D01*
X7989Y3182D01*
X8015Y3179D01*
X8035Y3174D01*
X8049Y3170D01*
X8058Y3165D01*
X8059Y3164D01*
X8060Y3161D01*
X8063Y3155D01*
Y3108D01*
X8115D01*
X8124Y3104D01*
X8128Y3106D01*
X8132Y3105D01*
X8138Y3108D01*
X8460D01*
X8464Y3105D01*
X8470Y3107D01*
X8476Y3104D01*
X8485Y3108D01*
X8537D01*
Y3147D01*
X8544Y3149D01*
X8560Y3153D01*
X8581Y3156D01*
X8640Y3160D01*
X8692Y3158D01*
X8718Y3156D01*
X8740Y3153D01*
X8756Y3149D01*
X8763Y3147D01*
Y3108D01*
X8815D01*
X8824Y3104D01*
X8830Y3107D01*
X8836Y3105D01*
X8840Y3108D01*
X9160D01*
X9164Y3105D01*
X9170Y3107D01*
X9176Y3104D01*
X9185Y3108D01*
X9237D01*
Y3147D01*
X9244Y3149D01*
X9260Y3153D01*
X9281Y3156D01*
X9340Y3160D01*
X9392Y3158D01*
X9418Y3156D01*
X9440Y3153D01*
X9456Y3149D01*
X9463Y3147D01*
Y3108D01*
X9515D01*
X9524Y3104D01*
X9530Y3107D01*
X9536Y3105D01*
X9540Y3108D01*
X9937D01*
Y3468D01*
X9940Y3473D01*
X9939Y3478D01*
X9941Y3482D01*
X9937Y3491D01*
Y3543D01*
X9890D01*
X9885Y3546D01*
X9884Y3546D01*
X9884Y3547D01*
X9880Y3555D01*
X9875Y3570D01*
X9871Y3589D01*
X9866Y3648D01*
X9865Y3683D01*
X9863Y3687D01*
Y3950D01*
X9851Y4012D01*
X9815Y4065D01*
X9615Y4265D01*
X9562Y4301D01*
X9500Y4313D01*
X7940D01*
X7906Y4363D01*
X7913Y4400D01*
X7901Y4462D01*
X7865Y4515D01*
X7833Y4537D01*
X7848Y4587D01*
X8050D01*
X8112Y4599D01*
X8165Y4635D01*
X8201Y4688D01*
X8213Y4750D01*
X8202Y4808D01*
X8203Y4820D01*
X8223Y4858D01*
X9812D01*
X10258Y4412D01*
Y3573D01*
X10255Y3566D01*
X10255Y3565D01*
X10120D01*
Y3128D01*
Y2972D01*
Y2535D01*
X10580D01*
Y2958D01*
X10720D01*
Y2535D01*
X10855D01*
X10855Y2534D01*
X10858Y2527D01*
Y2338D01*
X10335Y1815D01*
X10315Y1785D01*
X10308Y1750D01*
Y1488D01*
X10294Y1474D01*
X10288Y1472D01*
X10276Y1462D01*
X10263Y1455D01*
X10245Y1447D01*
X10220Y1440D01*
X10189Y1434D01*
X10153Y1428D01*
X10010Y1420D01*
X9953Y1419D01*
X9950Y1418D01*
X9950Y1418D01*
X9842Y1404D01*
X9741Y1362D01*
X9654Y1296D01*
X9588Y1209D01*
X9546Y1108D01*
X9532Y1000D01*
X9546Y892D01*
X9588Y791D01*
X9654Y704D01*
X9667Y695D01*
X9651Y647D01*
X9425D01*
X9420Y652D01*
X9419Y658D01*
X9410Y669D01*
X9403Y681D01*
X9396Y700D01*
X9389Y725D01*
X9383Y756D01*
X9378Y792D01*
X9370Y938D01*
X9369Y997D01*
X9368Y1000D01*
X9368Y1000D01*
X9354Y1108D01*
X9312Y1209D01*
X9246Y1296D01*
X9159Y1362D01*
X9058Y1404D01*
X8950Y1418D01*
X8842Y1404D01*
X8741Y1362D01*
X8654Y1296D01*
X8588Y1209D01*
X8546Y1108D01*
X8532Y1000D01*
X8546Y892D01*
X8588Y791D01*
X8654Y704D01*
X8741Y638D01*
X8842Y596D01*
X8910Y587D01*
X8907Y537D01*
X8535D01*
X8420Y652D01*
X8419Y658D01*
X8410Y669D01*
X8403Y681D01*
X8396Y700D01*
X8389Y725D01*
X8383Y756D01*
X8378Y792D01*
X8370Y938D01*
X8369Y997D01*
X8368Y1000D01*
X8368Y1000D01*
X8354Y1108D01*
X8312Y1209D01*
X8246Y1296D01*
X8159Y1362D01*
X8058Y1404D01*
X7950Y1418D01*
X7842Y1404D01*
X7741Y1362D01*
X7654Y1296D01*
X7588Y1209D01*
X7546Y1108D01*
X7532Y1000D01*
X7546Y892D01*
X7588Y791D01*
X7654Y704D01*
X7741Y638D01*
X7842Y596D01*
X7949Y582D01*
X7953Y581D01*
X8066Y579D01*
X8157Y572D01*
X8194Y567D01*
X8225Y561D01*
X8250Y554D01*
X8269Y547D01*
X8281Y540D01*
X8292Y531D01*
X8298Y530D01*
X8438Y389D01*
X8466Y370D01*
X8500Y364D01*
X11178D01*
X11211Y370D01*
X11239Y389D01*
X11572Y722D01*
X11575Y726D01*
X11634Y731D01*
X11654Y704D01*
X11741Y638D01*
X11842Y596D01*
X11950Y582D01*
X12058Y596D01*
X12159Y638D01*
X12246Y704D01*
X12312Y791D01*
X12354Y892D01*
X12362Y950D01*
X12368Y962D01*
X12368Y962D01*
X12368Y962D01*
X12374Y1022D01*
X12387Y1127D01*
X12403Y1210D01*
X12412Y1242D01*
X12420Y1268D01*
X12428Y1287D01*
X12435Y1299D01*
X12444Y1310D01*
X12445Y1315D01*
X14038Y2908D01*
X20354D01*
X20373Y2862D01*
X20363Y2852D01*
X20322Y2830D01*
X19885D01*
Y2695D01*
X19884Y2695D01*
X19877Y2692D01*
X19665D01*
X19658Y2695D01*
X19652Y2695D01*
X19649Y2696D01*
X19646Y2696D01*
X19643Y2697D01*
X19640Y2699D01*
X19636Y2701D01*
X19632Y2703D01*
X19628Y2707D01*
X19623Y2711D01*
X19616Y2717D01*
X19609Y2720D01*
X19562Y2751D01*
X19500Y2763D01*
X19438Y2751D01*
X19385Y2715D01*
X19349Y2662D01*
X19337Y2600D01*
X19349Y2538D01*
X19385Y2485D01*
X19438Y2449D01*
X19500Y2437D01*
X19562Y2449D01*
X19609Y2480D01*
X19616Y2483D01*
X19623Y2489D01*
X19628Y2493D01*
X19632Y2497D01*
X19636Y2499D01*
X19640Y2501D01*
X19643Y2503D01*
X19646Y2504D01*
X19649Y2504D01*
X19652Y2505D01*
X19658Y2505D01*
X19665Y2508D01*
X19877D01*
X19884Y2505D01*
X19885Y2505D01*
Y2370D01*
X20134D01*
X20153Y2324D01*
X20089Y2259D01*
X14117D01*
X14082Y2252D01*
X14052Y2232D01*
X13294Y1474D01*
X13288Y1472D01*
X13276Y1462D01*
X13263Y1455D01*
X13245Y1447D01*
X13219Y1440D01*
X13189Y1434D01*
X13153Y1428D01*
X13010Y1420D01*
X12953Y1419D01*
X12950Y1418D01*
X12950Y1418D01*
X12842Y1404D01*
X12741Y1362D01*
X12654Y1296D01*
X12588Y1209D01*
X12546Y1108D01*
X12532Y1000D01*
X12546Y892D01*
X12588Y791D01*
X12654Y704D01*
X12741Y638D01*
X12842Y596D01*
X12950Y582D01*
X13058Y596D01*
X13159Y638D01*
X13246Y704D01*
X13312Y791D01*
X13354Y892D01*
X13368Y999D01*
X13369Y1003D01*
X13371Y1113D01*
X13378Y1203D01*
X13384Y1239D01*
X13390Y1269D01*
X13397Y1295D01*
X13405Y1313D01*
X13412Y1326D01*
X13422Y1338D01*
X13424Y1344D01*
X14155Y2075D01*
X19867D01*
Y2000D01*
X20382D01*
Y2038D01*
X20427Y2078D01*
X20455Y2066D01*
X20458Y2061D01*
Y1663D01*
X20893D01*
Y2058D01*
X20895Y2061D01*
X20894Y2069D01*
X20897Y2076D01*
X20893Y2085D01*
Y2348D01*
X20915Y2370D01*
X20916Y2418D01*
X20926Y2421D01*
X20941Y2426D01*
X20961Y2429D01*
X21020Y2434D01*
X21055Y2435D01*
X21059Y2437D01*
X22150D01*
X22212Y2449D01*
X22265Y2485D01*
X22580Y2799D01*
X22615Y2852D01*
X22627Y2914D01*
Y5936D01*
X22615Y5998D01*
X22580Y6051D01*
X22461Y6170D01*
X22459Y6174D01*
X22441Y6194D01*
X22426Y6214D01*
X22413Y6236D01*
X22401Y6259D01*
X22392Y6285D01*
X22383Y6312D01*
X22377Y6342D01*
X22373Y6374D01*
X22370Y6409D01*
X22369Y6448D01*
X22368Y6451D01*
X22354Y6558D01*
X22312Y6659D01*
X22246Y6745D01*
X22245Y6748D01*
X22218Y6776D01*
X22195Y6802D01*
X22176Y6828D01*
X22159Y6854D01*
X22145Y6879D01*
X22134Y6904D01*
X22126Y6929D01*
X22120Y6954D01*
X22116Y6978D01*
X22115Y7006D01*
X22113Y7009D01*
Y7250D01*
X22113Y7250D01*
X22101Y7312D01*
X22065Y7365D01*
X21113Y8318D01*
Y8391D01*
X21115Y8395D01*
X21116Y8431D01*
X21118Y8461D01*
X21123Y8485D01*
X21128Y8504D01*
X21133Y8517D01*
X21138Y8525D01*
X21141Y8529D01*
X21143Y8530D01*
X21145Y8531D01*
X21157Y8532D01*
X21163Y8536D01*
X21365D01*
Y9365D01*
X20536D01*
Y8536D01*
X20737D01*
X20743Y8532D01*
X20755Y8531D01*
X20757Y8530D01*
X20759Y8529D01*
X20762Y8525D01*
X20767Y8517D01*
X20772Y8504D01*
X20777Y8485D01*
X20782Y8461D01*
X20784Y8431D01*
X20785Y8395D01*
X20787Y8391D01*
Y8250D01*
X20799Y8188D01*
X20835Y8135D01*
X21787Y7182D01*
Y7009D01*
X21785Y7006D01*
X21784Y6978D01*
X21780Y6954D01*
X21774Y6929D01*
X21766Y6904D01*
X21755Y6879D01*
X21741Y6854D01*
X21724Y6828D01*
X21705Y6802D01*
X21682Y6776D01*
X21655Y6748D01*
X21654Y6746D01*
X21652Y6745D01*
X21624Y6718D01*
X21598Y6695D01*
X21572Y6676D01*
X21546Y6659D01*
X21521Y6645D01*
X21496Y6634D01*
X21471Y6626D01*
X21446Y6620D01*
X21422Y6616D01*
X21394Y6615D01*
X21391Y6613D01*
X20939D01*
X20935Y6615D01*
X20899Y6616D01*
X20869Y6618D01*
X20845Y6623D01*
X20825Y6628D01*
X20812Y6633D01*
X20804Y6638D01*
X20800Y6642D01*
X20799Y6643D01*
X20798Y6645D01*
X20797Y6657D01*
X20795Y6661D01*
Y6845D01*
X20611D01*
X20607Y6847D01*
X20595Y6848D01*
X20593Y6849D01*
X20592Y6850D01*
X20588Y6854D01*
X20583Y6862D01*
X20578Y6875D01*
X20573Y6895D01*
X20568Y6919D01*
X20566Y6949D01*
X20565Y6985D01*
X20563Y6989D01*
Y7900D01*
X20551Y7962D01*
X20515Y8015D01*
X20240Y8290D01*
X20239Y8294D01*
X20214Y8321D01*
X20193Y8348D01*
X20174Y8374D01*
X20159Y8402D01*
X20145Y8431D01*
X20135Y8461D01*
X20129Y8480D01*
X20134Y8496D01*
X20145Y8521D01*
X20159Y8546D01*
X20176Y8572D01*
X20195Y8598D01*
X20218Y8624D01*
X20245Y8652D01*
X20246Y8655D01*
X20312Y8741D01*
X20354Y8842D01*
X20368Y8950D01*
X20354Y9058D01*
X20312Y9159D01*
X20246Y9246D01*
X20159Y9312D01*
X20058Y9354D01*
X19951Y9368D01*
X19948Y9369D01*
X19909Y9370D01*
X19874Y9373D01*
X19842Y9377D01*
X19812Y9384D01*
X19784Y9392D01*
X19759Y9402D01*
X19735Y9413D01*
X19714Y9426D01*
X19694Y9441D01*
X19673Y9460D01*
X19670Y9461D01*
X19415Y9715D01*
X19362Y9751D01*
X19300Y9763D01*
D02*
G37*
G36*
X16977Y8183D02*
X16800D01*
Y8026D01*
X16977D01*
Y8183D01*
D02*
G37*
G36*
X15677D02*
X15500D01*
Y8026D01*
X15677D01*
Y8183D01*
D02*
G37*
G36*
X16600D02*
X16423D01*
Y8026D01*
X16600D01*
Y8183D01*
D02*
G37*
G36*
X15300D02*
X15123D01*
Y8026D01*
X15300D01*
Y8183D01*
D02*
G37*
G36*
X8527Y8133D02*
X8350D01*
Y7976D01*
X8527D01*
Y8133D01*
D02*
G37*
G36*
X8150D02*
X7973D01*
Y7976D01*
X8150D01*
Y8133D01*
D02*
G37*
G36*
X16977Y7826D02*
X16800D01*
Y7668D01*
X16977D01*
Y7826D01*
D02*
G37*
G36*
X8527Y7776D02*
X8350D01*
Y7618D01*
X8527D01*
Y7776D01*
D02*
G37*
G36*
X8150D02*
X7973D01*
Y7618D01*
X8150D01*
Y7776D01*
D02*
G37*
G36*
X18877Y7632D02*
X18700D01*
Y7474D01*
X18877D01*
Y7632D01*
D02*
G37*
G36*
X18500D02*
X18323D01*
Y7474D01*
X18500D01*
Y7632D01*
D02*
G37*
G36*
X4650Y7695D02*
X4631Y7693D01*
X4521Y7647D01*
X4426Y7574D01*
X4353Y7479D01*
X4307Y7369D01*
X4305Y7350D01*
X4650D01*
Y7695D01*
D02*
G37*
G36*
X18877Y7274D02*
X18700D01*
Y7117D01*
X18877D01*
Y7274D01*
D02*
G37*
G36*
X18500D02*
X18323D01*
Y7117D01*
X18500D01*
Y7274D01*
D02*
G37*
G36*
X7120Y7664D02*
X6380D01*
Y6836D01*
X7120D01*
Y7664D01*
D02*
G37*
G36*
X4650Y7150D02*
X4305D01*
X4307Y7131D01*
X4353Y7021D01*
X4426Y6926D01*
X4521Y6853D01*
X4631Y6807D01*
X4650Y6805D01*
Y7150D01*
D02*
G37*
G36*
X18180Y7572D02*
X17720D01*
Y7135D01*
X17855D01*
X17855Y7134D01*
X17858Y7127D01*
Y6915D01*
X17855Y6908D01*
X17855Y6902D01*
X17854Y6899D01*
X17854Y6896D01*
X17853Y6893D01*
X17851Y6890D01*
X17849Y6886D01*
X17847Y6882D01*
X17843Y6878D01*
X17839Y6873D01*
X17833Y6866D01*
X17830Y6859D01*
X17799Y6812D01*
X17787Y6750D01*
X17799Y6688D01*
X17835Y6635D01*
X17888Y6599D01*
X17950Y6587D01*
X18012Y6599D01*
X18065Y6635D01*
X18101Y6688D01*
X18113Y6750D01*
X18101Y6812D01*
X18070Y6859D01*
X18067Y6866D01*
X18061Y6873D01*
X18057Y6878D01*
X18053Y6882D01*
X18051Y6886D01*
X18049Y6890D01*
X18047Y6893D01*
X18046Y6896D01*
X18046Y6899D01*
X18045Y6902D01*
X18045Y6908D01*
X18042Y6915D01*
Y7127D01*
X18045Y7134D01*
X18045Y7135D01*
X18180D01*
Y7572D01*
D02*
G37*
G36*
X4850Y6645D02*
Y6300D01*
X5195D01*
X5193Y6319D01*
X5147Y6429D01*
X5074Y6524D01*
X4979Y6597D01*
X4869Y6643D01*
X4850Y6645D01*
D02*
G37*
G36*
X4650D02*
X4631Y6643D01*
X4521Y6597D01*
X4426Y6524D01*
X4353Y6429D01*
X4307Y6319D01*
X4305Y6300D01*
X4650D01*
Y6645D01*
D02*
G37*
G36*
X13027Y6233D02*
X12850D01*
Y6076D01*
X13027D01*
Y6233D01*
D02*
G37*
G36*
X12650D02*
X12473D01*
Y6076D01*
X12650D01*
Y6233D01*
D02*
G37*
G36*
X17533Y6027D02*
X17376D01*
Y5850D01*
X17533D01*
Y6027D01*
D02*
G37*
G36*
X17176D02*
X17018D01*
Y5850D01*
X17176D01*
Y6027D01*
D02*
G37*
G36*
X7120Y6615D02*
X6380D01*
Y5785D01*
X7120D01*
Y6615D01*
D02*
G37*
G36*
X5195Y6100D02*
X4850D01*
Y5755D01*
X4869Y5757D01*
X4979Y5803D01*
X5074Y5876D01*
X5147Y5971D01*
X5193Y6081D01*
X5195Y6100D01*
D02*
G37*
G36*
X4650D02*
X4305D01*
X4307Y6081D01*
X4353Y5971D01*
X4426Y5876D01*
X4521Y5803D01*
X4631Y5757D01*
X4650Y5755D01*
Y6100D01*
D02*
G37*
G36*
X16400Y7063D02*
X16338Y7051D01*
X16285Y7015D01*
X16249Y6962D01*
X16237Y6900D01*
X16238Y6894D01*
X16236Y6886D01*
X16236Y6878D01*
X16236Y6873D01*
X16236Y6868D01*
X16235Y6864D01*
X16234Y6861D01*
X16233Y6858D01*
X16232Y6856D01*
X16231Y6854D01*
X16229Y6852D01*
X16225Y6847D01*
X16225Y6846D01*
X16223Y6845D01*
X16222Y6839D01*
X15479Y6097D01*
X15472Y6095D01*
X15468Y6091D01*
X15465Y6089D01*
X15462Y6087D01*
X15459Y6085D01*
X15455Y6083D01*
X15450Y6081D01*
X15445Y6080D01*
X15438Y6078D01*
X15431Y6077D01*
X15422Y6076D01*
X15410Y6070D01*
X15374Y6063D01*
X15321Y6027D01*
X15285Y5974D01*
X15273Y5912D01*
X15285Y5849D01*
X15321Y5796D01*
X15374Y5761D01*
X15436Y5749D01*
X15498Y5761D01*
X15551Y5796D01*
X15587Y5849D01*
X15599Y5912D01*
X15598Y5918D01*
X15600Y5925D01*
X15600Y5934D01*
X15600Y5939D01*
X15600Y5944D01*
X15601Y5948D01*
X15602Y5951D01*
X15603Y5954D01*
X15604Y5956D01*
X15605Y5958D01*
X15607Y5960D01*
X15611Y5964D01*
X15611Y5966D01*
X15613Y5967D01*
X15614Y5973D01*
X16357Y6715D01*
X16364Y6717D01*
X16368Y6721D01*
X16371Y6723D01*
X16374Y6725D01*
X16377Y6727D01*
X16381Y6729D01*
X16386Y6731D01*
X16391Y6732D01*
X16398Y6734D01*
X16405Y6735D01*
X16414Y6736D01*
X16426Y6742D01*
X16462Y6749D01*
X16515Y6785D01*
X16551Y6838D01*
X16563Y6900D01*
X16551Y6962D01*
X16515Y7015D01*
X16462Y7051D01*
X16400Y7063D01*
D02*
G37*
G36*
X13027Y5876D02*
X12850D01*
Y5718D01*
X13027D01*
Y5876D01*
D02*
G37*
G36*
X12650D02*
X12473D01*
Y5718D01*
X12650D01*
Y5876D01*
D02*
G37*
G36*
X20500Y5875D02*
Y5550D01*
X20825D01*
X20823Y5563D01*
X20780Y5669D01*
X20710Y5760D01*
X20619Y5830D01*
X20513Y5873D01*
X20500Y5875D01*
D02*
G37*
G36*
X20300D02*
X20287Y5873D01*
X20181Y5830D01*
X20090Y5760D01*
X20020Y5669D01*
X19977Y5563D01*
X19975Y5550D01*
X20300D01*
Y5875D01*
D02*
G37*
G36*
X21850Y5895D02*
X21831Y5893D01*
X21721Y5847D01*
X21626Y5774D01*
X21553Y5679D01*
X21507Y5569D01*
X21505Y5550D01*
X21850D01*
Y5895D01*
D02*
G37*
G36*
X17533Y5650D02*
X17376D01*
Y5473D01*
X17533D01*
Y5650D01*
D02*
G37*
G36*
X17176D02*
X17018D01*
Y5473D01*
X17176D01*
Y5650D01*
D02*
G37*
G36*
X16700Y6613D02*
X16638Y6601D01*
X16585Y6565D01*
X16549Y6512D01*
X16537Y6450D01*
X16549Y6388D01*
X16580Y6341D01*
X16583Y6334D01*
X16589Y6327D01*
X16593Y6322D01*
X16597Y6318D01*
X16599Y6314D01*
X16601Y6310D01*
X16603Y6307D01*
X16604Y6304D01*
X16604Y6301D01*
X16605Y6298D01*
X16605Y6292D01*
X16608Y6285D01*
Y5995D01*
X16605Y5988D01*
X16605Y5987D01*
X16507D01*
Y5513D01*
X16629D01*
X16629Y5512D01*
X16633Y5505D01*
Y5376D01*
X16640Y5340D01*
X16660Y5311D01*
X16785Y5185D01*
X16815Y5165D01*
X16850Y5158D01*
X17712D01*
X17719Y5155D01*
X17720Y5155D01*
Y5028D01*
X18180D01*
Y5465D01*
X17720D01*
Y5345D01*
X17719Y5345D01*
X17712Y5342D01*
X16888D01*
X16816Y5414D01*
Y5505D01*
X16819Y5512D01*
X16819Y5513D01*
X16942D01*
Y5987D01*
X16795D01*
X16795Y5988D01*
X16792Y5995D01*
Y6285D01*
X16795Y6292D01*
X16795Y6298D01*
X16796Y6301D01*
X16796Y6304D01*
X16797Y6307D01*
X16799Y6310D01*
X16801Y6314D01*
X16803Y6318D01*
X16807Y6322D01*
X16811Y6327D01*
X16817Y6334D01*
X16820Y6341D01*
X16851Y6388D01*
X16863Y6450D01*
X16851Y6512D01*
X16815Y6565D01*
X16762Y6601D01*
X16700Y6613D01*
D02*
G37*
G36*
X20825Y5350D02*
X20500D01*
Y5025D01*
X20513Y5027D01*
X20619Y5070D01*
X20710Y5140D01*
X20780Y5231D01*
X20823Y5337D01*
X20825Y5350D01*
D02*
G37*
G36*
X20300D02*
X19975D01*
X19977Y5337D01*
X20020Y5231D01*
X20090Y5140D01*
X20181Y5070D01*
X20287Y5027D01*
X20300Y5025D01*
Y5350D01*
D02*
G37*
G36*
X21850D02*
X21505D01*
X21507Y5331D01*
X21553Y5221D01*
X21626Y5126D01*
X21721Y5053D01*
X21831Y5007D01*
X21850Y5005D01*
Y5350D01*
D02*
G37*
G36*
X16700Y5063D02*
X16638Y5051D01*
X16585Y5015D01*
X16549Y4962D01*
X16537Y4900D01*
X16549Y4838D01*
X16580Y4791D01*
X16583Y4784D01*
X16589Y4777D01*
X16593Y4772D01*
X16597Y4768D01*
X16599Y4764D01*
X16601Y4760D01*
X16603Y4757D01*
X16604Y4754D01*
X16604Y4751D01*
X16605Y4748D01*
X16605Y4742D01*
X16608Y4735D01*
Y4395D01*
X16605Y4388D01*
X16605Y4387D01*
X16457D01*
Y3913D01*
X16892D01*
Y4020D01*
X16922Y4036D01*
X16968Y4006D01*
Y3873D01*
X17126D01*
Y4150D01*
Y4432D01*
X17107Y4477D01*
X17191Y4562D01*
X17712D01*
X17719Y4558D01*
X17720Y4558D01*
Y4435D01*
X18180D01*
Y4872D01*
X17720D01*
Y4748D01*
X17719Y4748D01*
X17712Y4745D01*
X17153D01*
X17118Y4738D01*
X17089Y4718D01*
X16913Y4543D01*
X16893Y4513D01*
X16886Y4478D01*
Y4387D01*
X16795D01*
X16795Y4388D01*
X16792Y4395D01*
Y4735D01*
X16795Y4742D01*
X16795Y4748D01*
X16796Y4751D01*
X16796Y4754D01*
X16797Y4757D01*
X16799Y4760D01*
X16801Y4764D01*
X16803Y4768D01*
X16807Y4772D01*
X16811Y4777D01*
X16817Y4784D01*
X16820Y4791D01*
X16851Y4838D01*
X16863Y4900D01*
X16851Y4962D01*
X16815Y5015D01*
X16762Y5051D01*
X16700Y5063D01*
D02*
G37*
G36*
X17483Y4427D02*
X17326D01*
Y4250D01*
X17483D01*
Y4427D01*
D02*
G37*
G36*
X13027Y4082D02*
X12850D01*
Y3924D01*
X13027D01*
Y4082D01*
D02*
G37*
G36*
X12650D02*
X12473D01*
Y3924D01*
X12650D01*
Y4082D01*
D02*
G37*
G36*
X17483Y4050D02*
X17326D01*
Y3873D01*
X17483D01*
Y4050D01*
D02*
G37*
G36*
X13027Y3724D02*
X12850D01*
Y3567D01*
X13027D01*
Y3724D01*
D02*
G37*
G36*
X12650D02*
X12473D01*
Y3567D01*
X12650D01*
Y3724D01*
D02*
G37*
G36*
X9977Y3032D02*
X9800D01*
Y2874D01*
X9977D01*
Y3032D01*
D02*
G37*
G36*
X9277D02*
X9100D01*
Y2874D01*
X9277D01*
Y3032D01*
D02*
G37*
G36*
X8577D02*
X8400D01*
Y2874D01*
X8577D01*
Y3032D01*
D02*
G37*
G36*
X9600D02*
X9423D01*
Y2874D01*
X9600D01*
Y3032D01*
D02*
G37*
G36*
X8900D02*
X8723D01*
Y2874D01*
X8900D01*
Y3032D01*
D02*
G37*
G36*
X8200D02*
X8023D01*
Y2874D01*
X8200D01*
Y3032D01*
D02*
G37*
G36*
X9977Y2674D02*
X9800D01*
Y2517D01*
X9977D01*
Y2674D01*
D02*
G37*
G36*
X9600D02*
X9423D01*
Y2517D01*
X9600D01*
Y2674D01*
D02*
G37*
G36*
X9277D02*
X9100D01*
Y2517D01*
X9277D01*
Y2674D01*
D02*
G37*
G36*
X8900D02*
X8723D01*
Y2517D01*
X8900D01*
Y2674D01*
D02*
G37*
G36*
X8577D02*
X8400D01*
Y2517D01*
X8577D01*
Y2674D01*
D02*
G37*
G36*
X8200D02*
X8023D01*
Y2517D01*
X8200D01*
Y2674D01*
D02*
G37*
G36*
X5573Y2511D02*
X5081D01*
Y2295D01*
X5573D01*
Y2511D01*
D02*
G37*
G36*
X4881D02*
X4389D01*
Y2295D01*
X4881D01*
Y2511D01*
D02*
G37*
G36*
X4177Y2332D02*
X4000D01*
Y2174D01*
X4177D01*
Y2332D01*
D02*
G37*
G36*
X3477D02*
X3300D01*
Y2174D01*
X3477D01*
Y2332D01*
D02*
G37*
G36*
X3800D02*
X3623D01*
Y2174D01*
X3800D01*
Y2332D01*
D02*
G37*
G36*
X3100D02*
X2923D01*
Y2174D01*
X3100D01*
Y2332D01*
D02*
G37*
G36*
X5573Y2095D02*
X5081D01*
Y1878D01*
X5573D01*
Y2095D01*
D02*
G37*
G36*
X4881D02*
X4389D01*
Y1878D01*
X4881D01*
Y2095D01*
D02*
G37*
G36*
X4177Y1974D02*
X4000D01*
Y1817D01*
X4177D01*
Y1974D01*
D02*
G37*
G36*
X3800D02*
X3623D01*
Y1817D01*
X3800D01*
Y1974D01*
D02*
G37*
G36*
X3477D02*
X3300D01*
Y1817D01*
X3477D01*
Y1974D01*
D02*
G37*
G36*
X3100D02*
X2923D01*
Y1817D01*
X3100D01*
Y1974D01*
D02*
G37*
G36*
X20382Y1800D02*
X20224D01*
Y1623D01*
X20382D01*
Y1800D01*
D02*
G37*
G36*
X20024D02*
X19867D01*
Y1623D01*
X20024D01*
Y1800D01*
D02*
G37*
G36*
X2050Y1445D02*
Y1100D01*
X2395D01*
X2393Y1119D01*
X2347Y1229D01*
X2274Y1324D01*
X2179Y1397D01*
X2069Y1443D01*
X2050Y1445D01*
D02*
G37*
G36*
X1850D02*
X1831Y1443D01*
X1721Y1397D01*
X1626Y1324D01*
X1553Y1229D01*
X1507Y1119D01*
X1505Y1100D01*
X1850D01*
Y1445D01*
D02*
G37*
G36*
X21365Y1415D02*
X20536D01*
Y586D01*
X21365D01*
Y1415D01*
D02*
G37*
G36*
X19950Y1418D02*
X19842Y1404D01*
X19741Y1362D01*
X19654Y1296D01*
X19588Y1209D01*
X19546Y1108D01*
X19532Y1000D01*
X19546Y892D01*
X19588Y791D01*
X19654Y704D01*
X19741Y638D01*
X19842Y596D01*
X19950Y582D01*
X20058Y596D01*
X20159Y638D01*
X20246Y704D01*
X20312Y791D01*
X20354Y892D01*
X20368Y1000D01*
X20354Y1108D01*
X20312Y1209D01*
X20246Y1296D01*
X20159Y1362D01*
X20058Y1404D01*
X19950Y1418D01*
D02*
G37*
G36*
X18950D02*
X18842Y1404D01*
X18741Y1362D01*
X18654Y1296D01*
X18588Y1209D01*
X18546Y1108D01*
X18532Y1000D01*
X18546Y892D01*
X18588Y791D01*
X18654Y704D01*
X18741Y638D01*
X18842Y596D01*
X18950Y582D01*
X19058Y596D01*
X19159Y638D01*
X19246Y704D01*
X19312Y791D01*
X19354Y892D01*
X19368Y1000D01*
X19354Y1108D01*
X19312Y1209D01*
X19246Y1296D01*
X19159Y1362D01*
X19058Y1404D01*
X18950Y1418D01*
D02*
G37*
G36*
X17950D02*
X17842Y1404D01*
X17741Y1362D01*
X17654Y1296D01*
X17588Y1209D01*
X17546Y1108D01*
X17532Y1000D01*
X17546Y892D01*
X17588Y791D01*
X17654Y704D01*
X17741Y638D01*
X17842Y596D01*
X17950Y582D01*
X18058Y596D01*
X18159Y638D01*
X18246Y704D01*
X18312Y791D01*
X18354Y892D01*
X18368Y1000D01*
X18354Y1108D01*
X18312Y1209D01*
X18246Y1296D01*
X18159Y1362D01*
X18058Y1404D01*
X17950Y1418D01*
D02*
G37*
G36*
X16950D02*
X16842Y1404D01*
X16741Y1362D01*
X16654Y1296D01*
X16588Y1209D01*
X16546Y1108D01*
X16532Y1000D01*
X16546Y892D01*
X16588Y791D01*
X16654Y704D01*
X16741Y638D01*
X16842Y596D01*
X16950Y582D01*
X17058Y596D01*
X17159Y638D01*
X17246Y704D01*
X17312Y791D01*
X17354Y892D01*
X17368Y1000D01*
X17354Y1108D01*
X17312Y1209D01*
X17246Y1296D01*
X17159Y1362D01*
X17058Y1404D01*
X16950Y1418D01*
D02*
G37*
G36*
X15950D02*
X15842Y1404D01*
X15741Y1362D01*
X15654Y1296D01*
X15588Y1209D01*
X15546Y1108D01*
X15532Y1000D01*
X15546Y892D01*
X15588Y791D01*
X15654Y704D01*
X15741Y638D01*
X15842Y596D01*
X15950Y582D01*
X16058Y596D01*
X16159Y638D01*
X16246Y704D01*
X16312Y791D01*
X16354Y892D01*
X16368Y1000D01*
X16354Y1108D01*
X16312Y1209D01*
X16246Y1296D01*
X16159Y1362D01*
X16058Y1404D01*
X15950Y1418D01*
D02*
G37*
G36*
X14950D02*
X14842Y1404D01*
X14741Y1362D01*
X14654Y1296D01*
X14588Y1209D01*
X14546Y1108D01*
X14532Y1000D01*
X14546Y892D01*
X14588Y791D01*
X14654Y704D01*
X14741Y638D01*
X14842Y596D01*
X14950Y582D01*
X15058Y596D01*
X15159Y638D01*
X15246Y704D01*
X15312Y791D01*
X15354Y892D01*
X15368Y1000D01*
X15354Y1108D01*
X15312Y1209D01*
X15246Y1296D01*
X15159Y1362D01*
X15058Y1404D01*
X14950Y1418D01*
D02*
G37*
G36*
X13950D02*
X13842Y1404D01*
X13741Y1362D01*
X13654Y1296D01*
X13588Y1209D01*
X13546Y1108D01*
X13532Y1000D01*
X13546Y892D01*
X13588Y791D01*
X13654Y704D01*
X13741Y638D01*
X13842Y596D01*
X13950Y582D01*
X14058Y596D01*
X14159Y638D01*
X14246Y704D01*
X14312Y791D01*
X14354Y892D01*
X14368Y1000D01*
X14354Y1108D01*
X14312Y1209D01*
X14246Y1296D01*
X14159Y1362D01*
X14058Y1404D01*
X13950Y1418D01*
D02*
G37*
G36*
X6950D02*
X6842Y1404D01*
X6741Y1362D01*
X6654Y1296D01*
X6588Y1209D01*
X6546Y1108D01*
X6532Y1000D01*
X6546Y892D01*
X6588Y791D01*
X6654Y704D01*
X6741Y638D01*
X6842Y596D01*
X6950Y582D01*
X7058Y596D01*
X7159Y638D01*
X7246Y704D01*
X7312Y791D01*
X7354Y892D01*
X7368Y1000D01*
X7354Y1108D01*
X7312Y1209D01*
X7246Y1296D01*
X7159Y1362D01*
X7058Y1404D01*
X6950Y1418D01*
D02*
G37*
G36*
X5950D02*
X5842Y1404D01*
X5741Y1362D01*
X5654Y1296D01*
X5588Y1209D01*
X5546Y1108D01*
X5532Y1000D01*
X5546Y892D01*
X5588Y791D01*
X5654Y704D01*
X5741Y638D01*
X5842Y596D01*
X5950Y582D01*
X6058Y596D01*
X6159Y638D01*
X6246Y704D01*
X6312Y791D01*
X6354Y892D01*
X6368Y1000D01*
X6354Y1108D01*
X6312Y1209D01*
X6246Y1296D01*
X6159Y1362D01*
X6058Y1404D01*
X5950Y1418D01*
D02*
G37*
G36*
X4950D02*
X4842Y1404D01*
X4741Y1362D01*
X4654Y1296D01*
X4588Y1209D01*
X4546Y1108D01*
X4532Y1000D01*
X4546Y892D01*
X4588Y791D01*
X4654Y704D01*
X4741Y638D01*
X4842Y596D01*
X4950Y582D01*
X5058Y596D01*
X5159Y638D01*
X5246Y704D01*
X5312Y791D01*
X5354Y892D01*
X5368Y1000D01*
X5354Y1108D01*
X5312Y1209D01*
X5246Y1296D01*
X5159Y1362D01*
X5058Y1404D01*
X4950Y1418D01*
D02*
G37*
G36*
X3950D02*
X3842Y1404D01*
X3741Y1362D01*
X3654Y1296D01*
X3588Y1209D01*
X3546Y1108D01*
X3532Y1000D01*
X3546Y892D01*
X3588Y791D01*
X3654Y704D01*
X3741Y638D01*
X3842Y596D01*
X3950Y582D01*
X4058Y596D01*
X4159Y638D01*
X4246Y704D01*
X4312Y791D01*
X4354Y892D01*
X4368Y1000D01*
X4354Y1108D01*
X4312Y1209D01*
X4246Y1296D01*
X4159Y1362D01*
X4058Y1404D01*
X3950Y1418D01*
D02*
G37*
G36*
X2950D02*
X2842Y1404D01*
X2741Y1362D01*
X2654Y1296D01*
X2588Y1209D01*
X2546Y1108D01*
X2532Y1000D01*
X2546Y892D01*
X2588Y791D01*
X2654Y704D01*
X2741Y638D01*
X2842Y596D01*
X2950Y582D01*
X3058Y596D01*
X3159Y638D01*
X3246Y704D01*
X3312Y791D01*
X3354Y892D01*
X3368Y1000D01*
X3354Y1108D01*
X3312Y1209D01*
X3246Y1296D01*
X3159Y1362D01*
X3058Y1404D01*
X2950Y1418D01*
D02*
G37*
G36*
X2395Y900D02*
X2050D01*
Y555D01*
X2069Y557D01*
X2179Y603D01*
X2274Y676D01*
X2347Y771D01*
X2393Y881D01*
X2395Y900D01*
D02*
G37*
G36*
X1850D02*
X1505D01*
X1507Y881D01*
X1553Y771D01*
X1626Y676D01*
X1721Y603D01*
X1831Y557D01*
X1850Y555D01*
Y900D01*
D02*
G37*
%LPD*%
G36*
X9580Y8103D02*
X9581Y8092D01*
X9583Y8083D01*
X9585Y8075D01*
X9588Y8068D01*
X9591Y8063D01*
X9595Y8058D01*
X9599Y8055D01*
X9604Y8054D01*
X9610Y8053D01*
X9490D01*
X9496Y8054D01*
X9501Y8055D01*
X9505Y8058D01*
X9509Y8063D01*
X9513Y8068D01*
X9515Y8075D01*
X9517Y8083D01*
X9519Y8092D01*
X9520Y8103D01*
X9520Y8114D01*
X9580D01*
X9580Y8103D01*
D02*
G37*
G36*
X8930D02*
X8931Y8092D01*
X8933Y8083D01*
X8935Y8075D01*
X8938Y8068D01*
X8941Y8063D01*
X8945Y8058D01*
X8949Y8055D01*
X8954Y8054D01*
X8960Y8053D01*
X8840D01*
X8846Y8054D01*
X8851Y8055D01*
X8855Y8058D01*
X8859Y8063D01*
X8863Y8068D01*
X8865Y8075D01*
X8867Y8083D01*
X8869Y8092D01*
X8870Y8103D01*
X8870Y8114D01*
X8930D01*
X8930Y8103D01*
D02*
G37*
G36*
X5782Y7795D02*
X5789Y7772D01*
X5800Y7746D01*
X5815Y7718D01*
X5835Y7688D01*
X5859Y7656D01*
X5920Y7584D01*
X5998Y7503D01*
X5502D01*
X5543Y7545D01*
X5641Y7656D01*
X5665Y7688D01*
X5685Y7718D01*
X5700Y7746D01*
X5711Y7772D01*
X5718Y7795D01*
X5720Y7816D01*
X5780D01*
X5782Y7795D01*
D02*
G37*
G36*
X5387Y6608D02*
X5408Y6596D01*
X5434Y6586D01*
X5465Y6577D01*
X5500Y6570D01*
X5540Y6564D01*
X5634Y6556D01*
X5746Y6554D01*
X5396Y6204D01*
X5395Y6262D01*
X5386Y6410D01*
X5380Y6450D01*
X5373Y6485D01*
X5364Y6516D01*
X5354Y6542D01*
X5342Y6563D01*
X5329Y6579D01*
X5371Y6621D01*
X5387Y6608D01*
D02*
G37*
G36*
X19653Y9391D02*
X19677Y9372D01*
X19704Y9356D01*
X19733Y9342D01*
X19764Y9330D01*
X19796Y9321D01*
X19831Y9313D01*
X19867Y9308D01*
X19906Y9305D01*
X19946Y9304D01*
X19596Y8954D01*
X19595Y8994D01*
X19592Y9033D01*
X19587Y9069D01*
X19579Y9104D01*
X19570Y9136D01*
X19558Y9167D01*
X19544Y9196D01*
X19528Y9223D01*
X19509Y9247D01*
X19488Y9270D01*
X19630Y9412D01*
X19653Y9391D01*
D02*
G37*
G36*
X4412Y9270D02*
X4391Y9247D01*
X4372Y9223D01*
X4356Y9196D01*
X4342Y9167D01*
X4330Y9136D01*
X4321Y9104D01*
X4313Y9069D01*
X4308Y9033D01*
X4305Y8994D01*
X4304Y8954D01*
X3954Y9304D01*
X3994Y9305D01*
X4033Y9308D01*
X4069Y9313D01*
X4104Y9321D01*
X4136Y9330D01*
X4167Y9342D01*
X4196Y9356D01*
X4223Y9372D01*
X4247Y9391D01*
X4270Y9412D01*
X4412Y9270D01*
D02*
G37*
G36*
X4946Y8596D02*
X4906Y8595D01*
X4867Y8592D01*
X4831Y8587D01*
X4796Y8579D01*
X4764Y8570D01*
X4733Y8558D01*
X4704Y8544D01*
X4677Y8528D01*
X4653Y8509D01*
X4630Y8488D01*
X4488Y8630D01*
X4509Y8653D01*
X4528Y8677D01*
X4544Y8704D01*
X4558Y8733D01*
X4570Y8764D01*
X4579Y8796D01*
X4587Y8831D01*
X4592Y8867D01*
X4595Y8906D01*
X4596Y8946D01*
X4946Y8596D01*
D02*
G37*
G36*
X21131Y8595D02*
X21114Y8589D01*
X21099Y8579D01*
X21086Y8565D01*
X21075Y8547D01*
X21066Y8525D01*
X21059Y8499D01*
X21054Y8469D01*
X21051Y8435D01*
X21050Y8397D01*
X20850D01*
X20849Y8435D01*
X20846Y8469D01*
X20841Y8499D01*
X20834Y8525D01*
X20825Y8547D01*
X20814Y8565D01*
X20801Y8579D01*
X20786Y8589D01*
X20769Y8595D01*
X20750Y8597D01*
X21150D01*
X21131Y8595D01*
D02*
G37*
G36*
X17451Y8266D02*
X17456Y8202D01*
X17461Y8176D01*
X17467Y8154D01*
X17475Y8136D01*
X17484Y8122D01*
X17494Y8112D01*
X17506Y8106D01*
X17519Y8104D01*
X17181D01*
X17194Y8106D01*
X17206Y8112D01*
X17216Y8122D01*
X17225Y8136D01*
X17233Y8154D01*
X17239Y8176D01*
X17244Y8202D01*
X17247Y8232D01*
X17249Y8266D01*
X17250Y8304D01*
X17450D01*
X17451Y8266D01*
D02*
G37*
G36*
X16151D02*
X16156Y8202D01*
X16161Y8176D01*
X16167Y8154D01*
X16175Y8136D01*
X16184Y8122D01*
X16194Y8112D01*
X16206Y8106D01*
X16219Y8104D01*
X15881D01*
X15894Y8106D01*
X15906Y8112D01*
X15916Y8122D01*
X15925Y8136D01*
X15933Y8154D01*
X15939Y8176D01*
X15944Y8202D01*
X15947Y8232D01*
X15949Y8266D01*
X15950Y8304D01*
X16150D01*
X16151Y8266D01*
D02*
G37*
G36*
X20170Y8668D02*
X20145Y8638D01*
X20123Y8609D01*
X20103Y8579D01*
X20087Y8549D01*
X20074Y8519D01*
X20063Y8489D01*
X20062Y8482D01*
X20063Y8477D01*
X20073Y8441D01*
X20085Y8406D01*
X20101Y8373D01*
X20119Y8340D01*
X20141Y8309D01*
X20165Y8279D01*
X20191Y8250D01*
X20091Y8067D01*
X20063Y8093D01*
X20035Y8112D01*
X20007Y8127D01*
X19978Y8135D01*
X19950Y8138D01*
X19922Y8135D01*
X19893Y8127D01*
X19865Y8112D01*
X19837Y8093D01*
X19809Y8067D01*
X19709Y8250D01*
X19735Y8279D01*
X19759Y8309D01*
X19781Y8340D01*
X19799Y8373D01*
X19815Y8406D01*
X19827Y8441D01*
X19837Y8477D01*
X19838Y8482D01*
X19837Y8489D01*
X19826Y8519D01*
X19813Y8549D01*
X19797Y8579D01*
X19777Y8609D01*
X19755Y8638D01*
X19730Y8668D01*
X19702Y8697D01*
X20198D01*
X20170Y8668D01*
D02*
G37*
G36*
X17781Y7789D02*
X17779Y7800D01*
X17773Y7810D01*
X17763Y7818D01*
X17749Y7826D01*
X17731Y7832D01*
X17709Y7837D01*
X17683Y7841D01*
X17655Y7844D01*
X17617Y7841D01*
X17591Y7837D01*
X17569Y7832D01*
X17551Y7826D01*
X17537Y7818D01*
X17527Y7810D01*
X17521Y7800D01*
X17519Y7789D01*
Y8104D01*
X17521Y8093D01*
X17527Y8083D01*
X17537Y8075D01*
X17551Y8067D01*
X17569Y8061D01*
X17591Y8056D01*
X17617Y8052D01*
X17645Y8049D01*
X17683Y8052D01*
X17709Y8056D01*
X17731Y8061D01*
X17749Y8067D01*
X17763Y8075D01*
X17773Y8083D01*
X17779Y8093D01*
X17781Y8104D01*
Y7789D01*
D02*
G37*
G36*
X18778Y8071D02*
X18784Y8062D01*
X18794Y8053D01*
X18808Y8046D01*
X18826Y8040D01*
X18848Y8035D01*
X18874Y8031D01*
X18904Y8028D01*
X18976Y8026D01*
Y7826D01*
X18938Y7825D01*
X18874Y7821D01*
X18848Y7817D01*
X18826Y7812D01*
X18808Y7805D01*
X18794Y7798D01*
X18784Y7790D01*
X18778Y7780D01*
X18776Y7769D01*
Y8082D01*
X18778Y8071D01*
D02*
G37*
G36*
X18121Y8091D02*
X18127Y8080D01*
X18137Y8069D01*
X18151Y8061D01*
X18169Y8053D01*
X18191Y8047D01*
X18217Y8042D01*
X18247Y8039D01*
X18272Y8037D01*
X18352Y8043D01*
X18374Y8048D01*
X18392Y8053D01*
X18406Y8059D01*
X18416Y8065D01*
X18422Y8073D01*
X18424Y8082D01*
Y7769D01*
X18422Y7782D01*
X18416Y7793D01*
X18406Y7803D01*
X18392Y7812D01*
X18374Y7819D01*
X18352Y7825D01*
X18326Y7830D01*
X18296Y7833D01*
X18267Y7835D01*
X18191Y7829D01*
X18169Y7824D01*
X18151Y7819D01*
X18137Y7813D01*
X18127Y7806D01*
X18121Y7798D01*
X18119Y7789D01*
Y8104D01*
X18121Y8091D01*
D02*
G37*
G36*
X14129Y7430D02*
X14121Y7438D01*
X14113Y7444D01*
X14105Y7450D01*
X14096Y7456D01*
X14088Y7460D01*
X14080Y7464D01*
X14071Y7466D01*
X14062Y7468D01*
X14054Y7470D01*
X14045Y7470D01*
Y7530D01*
X14054Y7530D01*
X14062Y7532D01*
X14071Y7534D01*
X14080Y7536D01*
X14088Y7540D01*
X14096Y7544D01*
X14105Y7550D01*
X14113Y7556D01*
X14121Y7562D01*
X14129Y7570D01*
Y7430D01*
D02*
G37*
G36*
X16524Y7426D02*
X16643Y7431D01*
Y7318D01*
X16641Y7319D01*
X16635Y7320D01*
X16626Y7321D01*
X16581Y7323D01*
X16524Y7324D01*
Y7276D01*
X16523Y7285D01*
X16520Y7293D01*
X16515Y7301D01*
X16508Y7307D01*
X16499Y7312D01*
X16489Y7317D01*
X16476Y7320D01*
X16461Y7322D01*
X16444Y7324D01*
X16426Y7324D01*
Y7424D01*
X16444Y7425D01*
X16461Y7426D01*
X16476Y7429D01*
X16489Y7432D01*
X16499Y7437D01*
X16508Y7442D01*
X16515Y7448D01*
X16520Y7455D01*
X16523Y7464D01*
X16524Y7473D01*
Y7426D01*
D02*
G37*
G36*
X15882Y7314D02*
X15882Y7320D01*
X15880Y7325D01*
X15877Y7330D01*
X15873Y7334D01*
X15867Y7337D01*
X15860Y7340D01*
X15852Y7342D01*
X15843Y7343D01*
X15833Y7344D01*
X15821Y7344D01*
Y7404D01*
X15833Y7405D01*
X15843Y7406D01*
X15852Y7407D01*
X15860Y7409D01*
X15867Y7412D01*
X15873Y7415D01*
X15877Y7419D01*
X15880Y7424D01*
X15882Y7429D01*
X15882Y7434D01*
Y7314D01*
D02*
G37*
G36*
X15575Y7429D02*
X15577Y7424D01*
X15580Y7419D01*
X15585Y7415D01*
X15590Y7412D01*
X15597Y7409D01*
X15605Y7407D01*
X15614Y7406D01*
X15624Y7405D01*
X15636Y7404D01*
Y7344D01*
X15624Y7344D01*
X15614Y7343D01*
X15605Y7342D01*
X15597Y7340D01*
X15590Y7337D01*
X15585Y7334D01*
X15580Y7330D01*
X15577Y7325D01*
X15575Y7320D01*
X15575Y7314D01*
Y7434D01*
X15575Y7429D01*
D02*
G37*
G36*
X15224Y7314D02*
X15223Y7320D01*
X15222Y7325D01*
X15219Y7330D01*
X15214Y7334D01*
X15209Y7337D01*
X15202Y7340D01*
X15195Y7342D01*
X15186Y7343D01*
X15175Y7344D01*
X15164Y7344D01*
Y7404D01*
X15175Y7405D01*
X15186Y7406D01*
X15195Y7407D01*
X15202Y7409D01*
X15209Y7412D01*
X15214Y7415D01*
X15219Y7419D01*
X15222Y7424D01*
X15223Y7429D01*
X15224Y7434D01*
Y7314D01*
D02*
G37*
G36*
X16876Y7509D02*
X16881Y7495D01*
X16889Y7483D01*
X16901Y7473D01*
X16915Y7464D01*
X16933Y7457D01*
X16954Y7451D01*
X16978Y7447D01*
X17005Y7445D01*
X17029Y7444D01*
X17052Y7445D01*
X17103Y7450D01*
X17124Y7455D01*
X17141Y7461D01*
X17156Y7468D01*
X17167Y7477D01*
X17175Y7487D01*
X17180Y7498D01*
X17181Y7511D01*
Y7204D01*
X17180Y7219D01*
X17175Y7233D01*
X17167Y7245D01*
X17156Y7255D01*
X17141Y7264D01*
X17124Y7271D01*
X17103Y7277D01*
X17079Y7281D01*
X17052Y7283D01*
X17028Y7284D01*
X17006Y7283D01*
X16954Y7278D01*
X16934Y7273D01*
X16916Y7267D01*
X16902Y7260D01*
X16890Y7252D01*
X16882Y7242D01*
X16878Y7231D01*
X16876Y7218D01*
X16875Y7524D01*
X16876Y7509D01*
D02*
G37*
G36*
X14129Y7130D02*
X14121Y7138D01*
X14113Y7144D01*
X14105Y7150D01*
X14096Y7156D01*
X14088Y7160D01*
X14080Y7164D01*
X14071Y7166D01*
X14062Y7168D01*
X14054Y7170D01*
X14045Y7170D01*
Y7230D01*
X14054Y7230D01*
X14062Y7232D01*
X14071Y7234D01*
X14080Y7236D01*
X14088Y7240D01*
X14096Y7244D01*
X14105Y7250D01*
X14113Y7256D01*
X14121Y7262D01*
X14129Y7270D01*
Y7130D01*
D02*
G37*
G36*
X9604Y7146D02*
X9599Y7145D01*
X9595Y7142D01*
X9591Y7137D01*
X9588Y7132D01*
X9585Y7125D01*
X9583Y7117D01*
X9581Y7108D01*
X9580Y7097D01*
X9580Y7086D01*
X9520D01*
X9520Y7097D01*
X9519Y7108D01*
X9517Y7117D01*
X9515Y7125D01*
X9513Y7132D01*
X9509Y7137D01*
X9505Y7142D01*
X9501Y7145D01*
X9496Y7146D01*
X9490Y7147D01*
X9610D01*
X9604Y7146D01*
D02*
G37*
G36*
X8954D02*
X8949Y7145D01*
X8945Y7142D01*
X8941Y7137D01*
X8938Y7132D01*
X8935Y7125D01*
X8933Y7117D01*
X8931Y7108D01*
X8930Y7097D01*
X8930Y7086D01*
X8870D01*
X8870Y7097D01*
X8869Y7108D01*
X8867Y7117D01*
X8865Y7125D01*
X8863Y7132D01*
X8859Y7137D01*
X8855Y7142D01*
X8851Y7145D01*
X8846Y7146D01*
X8840Y7147D01*
X8960D01*
X8954Y7146D01*
D02*
G37*
G36*
X8074Y7168D02*
X8426D01*
X8412Y7166D01*
X8399Y7160D01*
X8387Y7150D01*
X8377Y7136D01*
X8369Y7118D01*
X8362Y7096D01*
X8357Y7070D01*
X8353Y7040D01*
X8351Y7006D01*
X8350Y6968D01*
X8150D01*
X8149Y7006D01*
X8143Y7070D01*
X8138Y7096D01*
X8131Y7118D01*
X8123Y7136D01*
X8113Y7150D01*
X8101Y7160D01*
X8088Y7166D01*
X8074Y7168D01*
X8072Y7179D01*
X8066Y7188D01*
X8056Y7197D01*
X8042Y7204D01*
X8024Y7210D01*
X8002Y7215D01*
X7976Y7219D01*
X7946Y7222D01*
X7874Y7224D01*
Y7424D01*
X7912Y7425D01*
X7976Y7429D01*
X8002Y7433D01*
X8024Y7438D01*
X8042Y7445D01*
X8056Y7452D01*
X8066Y7460D01*
X8072Y7470D01*
X8074Y7481D01*
Y7168D01*
D02*
G37*
G36*
X9580Y6996D02*
X9582Y6988D01*
X9584Y6979D01*
X9586Y6970D01*
X9590Y6962D01*
X9594Y6954D01*
X9600Y6945D01*
X9606Y6937D01*
X9612Y6929D01*
X9620Y6921D01*
X9480D01*
X9488Y6929D01*
X9494Y6937D01*
X9500Y6945D01*
X9506Y6954D01*
X9510Y6962D01*
X9514Y6970D01*
X9516Y6979D01*
X9518Y6988D01*
X9520Y6996D01*
X9520Y7005D01*
X9580D01*
X9580Y6996D01*
D02*
G37*
G36*
X8930D02*
X8932Y6988D01*
X8934Y6979D01*
X8936Y6970D01*
X8940Y6962D01*
X8944Y6954D01*
X8950Y6945D01*
X8956Y6937D01*
X8962Y6929D01*
X8970Y6921D01*
X8830D01*
X8838Y6929D01*
X8844Y6937D01*
X8850Y6945D01*
X8856Y6954D01*
X8860Y6962D01*
X8864Y6970D01*
X8866Y6979D01*
X8868Y6988D01*
X8870Y6996D01*
X8870Y7005D01*
X8930D01*
X8930Y6996D01*
D02*
G37*
G36*
X14588Y6982D02*
X14581Y6974D01*
X14569Y6960D01*
X14564Y6952D01*
X14560Y6946D01*
X14557Y6939D01*
X14555Y6932D01*
X14553Y6926D01*
X14553Y6920D01*
X14553Y6914D01*
X14442Y6999D01*
X14447Y7000D01*
X14453Y7002D01*
X14458Y7004D01*
X14464Y7008D01*
X14471Y7011D01*
X14477Y7016D01*
X14491Y7028D01*
X14499Y7034D01*
X14507Y7042D01*
X14588Y6982D01*
D02*
G37*
G36*
X20501Y6945D02*
X20504Y6911D01*
X20509Y6881D01*
X20516Y6855D01*
X20525Y6833D01*
X20536Y6814D01*
X20549Y6800D01*
X20564Y6790D01*
X20581Y6784D01*
X20600Y6782D01*
X20200D01*
X20219Y6784D01*
X20236Y6790D01*
X20251Y6800D01*
X20264Y6814D01*
X20275Y6833D01*
X20284Y6855D01*
X20291Y6881D01*
X20296Y6911D01*
X20299Y6945D01*
X20300Y6983D01*
X20500D01*
X20501Y6945D01*
D02*
G37*
G36*
X9650Y6838D02*
X9651Y6828D01*
X9653Y6818D01*
X9655Y6808D01*
X9657Y6799D01*
X9661Y6791D01*
X9665Y6783D01*
X9670Y6775D01*
X9675Y6768D01*
X9681Y6761D01*
X9639Y6719D01*
X9632Y6725D01*
X9625Y6730D01*
X9617Y6735D01*
X9609Y6739D01*
X9601Y6743D01*
X9592Y6745D01*
X9582Y6747D01*
X9572Y6749D01*
X9562Y6750D01*
X9551Y6750D01*
X9650Y6849D01*
X9650Y6838D01*
D02*
G37*
G36*
X22051Y6972D02*
X22056Y6941D01*
X22063Y6911D01*
X22074Y6880D01*
X22087Y6850D01*
X22103Y6821D01*
X22123Y6791D01*
X22145Y6761D01*
X22170Y6732D01*
X22198Y6703D01*
X21702D01*
X21730Y6732D01*
X21755Y6761D01*
X21777Y6791D01*
X21797Y6821D01*
X21813Y6850D01*
X21826Y6880D01*
X21837Y6911D01*
X21844Y6941D01*
X21849Y6972D01*
X21850Y7003D01*
X22050D01*
X22051Y6972D01*
D02*
G37*
G36*
X8962Y6771D02*
X8956Y6763D01*
X8950Y6755D01*
X8944Y6746D01*
X8940Y6738D01*
X8936Y6730D01*
X8934Y6721D01*
X8932Y6712D01*
X8930Y6704D01*
X8930Y6695D01*
X8870D01*
X8870Y6704D01*
X8868Y6712D01*
X8866Y6721D01*
X8864Y6730D01*
X8860Y6738D01*
X8856Y6746D01*
X8850Y6755D01*
X8844Y6763D01*
X8838Y6771D01*
X8830Y6779D01*
X8970D01*
X8962Y6771D01*
D02*
G37*
G36*
X14881Y6739D02*
X14875Y6732D01*
X14870Y6725D01*
X14865Y6717D01*
X14861Y6709D01*
X14857Y6701D01*
X14855Y6692D01*
X14853Y6682D01*
X14851Y6672D01*
X14850Y6662D01*
X14850Y6651D01*
X14751Y6750D01*
X14762Y6750D01*
X14772Y6751D01*
X14782Y6753D01*
X14792Y6755D01*
X14801Y6757D01*
X14809Y6761D01*
X14817Y6765D01*
X14825Y6770D01*
X14832Y6775D01*
X14839Y6781D01*
X14881Y6739D01*
D02*
G37*
G36*
X11079Y6530D02*
X11071Y6538D01*
X11063Y6544D01*
X11055Y6550D01*
X11046Y6556D01*
X11038Y6560D01*
X11030Y6564D01*
X11021Y6566D01*
X11012Y6568D01*
X11004Y6570D01*
X10995Y6570D01*
Y6630D01*
X11004Y6630D01*
X11012Y6632D01*
X11021Y6634D01*
X11030Y6636D01*
X11038Y6640D01*
X11046Y6644D01*
X11055Y6650D01*
X11063Y6656D01*
X11071Y6662D01*
X11079Y6670D01*
Y6530D01*
D02*
G37*
G36*
X14812Y6571D02*
X14806Y6563D01*
X14800Y6555D01*
X14794Y6546D01*
X14790Y6538D01*
X14786Y6530D01*
X14784Y6521D01*
X14782Y6512D01*
X14780Y6504D01*
X14780Y6495D01*
X14720D01*
X14720Y6504D01*
X14718Y6512D01*
X14716Y6521D01*
X14714Y6530D01*
X14710Y6538D01*
X14706Y6546D01*
X14700Y6555D01*
X14694Y6563D01*
X14688Y6571D01*
X14680Y6579D01*
X14820D01*
X14812Y6571D01*
D02*
G37*
G36*
X10629Y6412D02*
X10637Y6406D01*
X10645Y6400D01*
X10654Y6394D01*
X10662Y6390D01*
X10670Y6386D01*
X10679Y6384D01*
X10688Y6382D01*
X10696Y6380D01*
X10705Y6380D01*
Y6320D01*
X10696Y6320D01*
X10688Y6318D01*
X10679Y6316D01*
X10670Y6314D01*
X10662Y6310D01*
X10654Y6306D01*
X10645Y6300D01*
X10637Y6294D01*
X10629Y6288D01*
X10621Y6280D01*
Y6420D01*
X10629Y6412D01*
D02*
G37*
G36*
X20734Y6631D02*
X20740Y6614D01*
X20750Y6599D01*
X20764Y6586D01*
X20783Y6575D01*
X20805Y6566D01*
X20831Y6559D01*
X20861Y6554D01*
X20895Y6551D01*
X20933Y6550D01*
Y6350D01*
X20895Y6349D01*
X20861Y6346D01*
X20831Y6341D01*
X20805Y6334D01*
X20783Y6325D01*
X20764Y6314D01*
X20750Y6301D01*
X20740Y6286D01*
X20734Y6269D01*
X20732Y6250D01*
Y6650D01*
X20734Y6631D01*
D02*
G37*
G36*
X21697Y6202D02*
X21668Y6230D01*
X21639Y6255D01*
X21609Y6277D01*
X21579Y6297D01*
X21550Y6313D01*
X21519Y6326D01*
X21489Y6337D01*
X21459Y6344D01*
X21428Y6349D01*
X21397Y6350D01*
Y6550D01*
X21428Y6551D01*
X21459Y6556D01*
X21489Y6563D01*
X21519Y6574D01*
X21550Y6587D01*
X21579Y6603D01*
X21609Y6623D01*
X21639Y6645D01*
X21668Y6670D01*
X21697Y6698D01*
Y6202D01*
D02*
G37*
G36*
X10429Y6212D02*
X10437Y6206D01*
X10445Y6200D01*
X10454Y6194D01*
X10462Y6190D01*
X10470Y6186D01*
X10479Y6184D01*
X10488Y6182D01*
X10496Y6180D01*
X10505Y6180D01*
Y6120D01*
X10496Y6120D01*
X10488Y6118D01*
X10479Y6116D01*
X10470Y6114D01*
X10462Y6110D01*
X10454Y6106D01*
X10445Y6100D01*
X10437Y6094D01*
X10429Y6088D01*
X10421Y6080D01*
Y6220D01*
X10429Y6212D01*
D02*
G37*
G36*
X22305Y6406D02*
X22308Y6367D01*
X22313Y6331D01*
X22320Y6296D01*
X22330Y6264D01*
X22342Y6233D01*
X22356Y6204D01*
X22372Y6178D01*
X22391Y6153D01*
X22411Y6130D01*
X22270Y5989D01*
X22247Y6009D01*
X22222Y6028D01*
X22196Y6044D01*
X22167Y6058D01*
X22136Y6070D01*
X22104Y6080D01*
X22069Y6087D01*
X22033Y6092D01*
X21994Y6095D01*
X21954Y6096D01*
X22304Y6446D01*
X22305Y6406D01*
D02*
G37*
G36*
X7329Y5380D02*
X7321Y5388D01*
X7313Y5394D01*
X7305Y5400D01*
X7296Y5406D01*
X7288Y5410D01*
X7280Y5414D01*
X7271Y5416D01*
X7262Y5418D01*
X7254Y5420D01*
X7245Y5420D01*
Y5480D01*
X7254Y5480D01*
X7262Y5482D01*
X7271Y5484D01*
X7280Y5486D01*
X7288Y5490D01*
X7296Y5494D01*
X7305Y5500D01*
X7313Y5506D01*
X7321Y5512D01*
X7329Y5520D01*
Y5380D01*
D02*
G37*
G36*
X5229Y5512D02*
X5237Y5506D01*
X5245Y5500D01*
X5254Y5494D01*
X5262Y5490D01*
X5270Y5486D01*
X5279Y5484D01*
X5288Y5482D01*
X5296Y5480D01*
X5305Y5480D01*
Y5420D01*
X5296Y5420D01*
X5288Y5418D01*
X5279Y5416D01*
X5270Y5414D01*
X5262Y5410D01*
X5254Y5406D01*
X5245Y5400D01*
X5237Y5394D01*
X5229Y5388D01*
X5221Y5380D01*
Y5520D01*
X5229Y5512D01*
D02*
G37*
G36*
X13148Y5364D02*
X13147Y5370D01*
X13145Y5375D01*
X13142Y5380D01*
X13138Y5384D01*
X13133Y5387D01*
X13126Y5390D01*
X13118Y5392D01*
X13109Y5393D01*
X13098Y5394D01*
X13087Y5394D01*
Y5454D01*
X13098Y5455D01*
X13109Y5456D01*
X13118Y5457D01*
X13126Y5459D01*
X13133Y5462D01*
X13138Y5465D01*
X13142Y5469D01*
X13145Y5474D01*
X13147Y5479D01*
X13148Y5484D01*
Y5364D01*
D02*
G37*
G36*
X12925Y5479D02*
X12927Y5474D01*
X12930Y5469D01*
X12935Y5465D01*
X12940Y5462D01*
X12947Y5459D01*
X12955Y5457D01*
X12964Y5456D01*
X12974Y5455D01*
X12986Y5454D01*
Y5394D01*
X12974Y5394D01*
X12964Y5393D01*
X12955Y5392D01*
X12947Y5390D01*
X12940Y5387D01*
X12935Y5384D01*
X12930Y5380D01*
X12927Y5375D01*
X12925Y5370D01*
X12925Y5364D01*
Y5484D01*
X12925Y5479D01*
D02*
G37*
G36*
X13853Y5454D02*
X13855Y5449D01*
X13858Y5445D01*
X13862Y5441D01*
X13867Y5437D01*
X13874Y5435D01*
X13882Y5433D01*
X13891Y5431D01*
X13902Y5430D01*
X13913Y5430D01*
Y5370D01*
X13902Y5370D01*
X13891Y5369D01*
X13882Y5367D01*
X13874Y5365D01*
X13867Y5362D01*
X13862Y5359D01*
X13858Y5355D01*
X13855Y5351D01*
X13853Y5346D01*
X13852Y5340D01*
Y5460D01*
X13853Y5454D01*
D02*
G37*
G36*
X14229Y5330D02*
X14221Y5338D01*
X14213Y5344D01*
X14205Y5350D01*
X14196Y5356D01*
X14188Y5360D01*
X14180Y5364D01*
X14171Y5366D01*
X14162Y5368D01*
X14154Y5370D01*
X14145Y5370D01*
Y5430D01*
X14154Y5430D01*
X14162Y5432D01*
X14171Y5434D01*
X14180Y5436D01*
X14188Y5440D01*
X14196Y5444D01*
X14205Y5450D01*
X14213Y5456D01*
X14221Y5462D01*
X14229Y5470D01*
Y5330D01*
D02*
G37*
G36*
X10929Y5462D02*
X10937Y5456D01*
X10945Y5450D01*
X10954Y5444D01*
X10962Y5440D01*
X10970Y5436D01*
X10979Y5434D01*
X10988Y5432D01*
X10996Y5430D01*
X11005Y5430D01*
Y5370D01*
X10996Y5370D01*
X10988Y5368D01*
X10979Y5366D01*
X10970Y5364D01*
X10962Y5360D01*
X10954Y5356D01*
X10945Y5350D01*
X10937Y5344D01*
X10929Y5338D01*
X10921Y5330D01*
Y5470D01*
X10929Y5462D01*
D02*
G37*
G36*
X3329Y5262D02*
X3337Y5256D01*
X3345Y5250D01*
X3354Y5244D01*
X3362Y5240D01*
X3370Y5236D01*
X3379Y5234D01*
X3388Y5232D01*
X3396Y5230D01*
X3405Y5230D01*
Y5170D01*
X3396Y5170D01*
X3388Y5168D01*
X3379Y5166D01*
X3370Y5164D01*
X3362Y5160D01*
X3354Y5156D01*
X3345Y5150D01*
X3337Y5144D01*
X3329Y5138D01*
X3321Y5130D01*
Y5270D01*
X3329Y5262D01*
D02*
G37*
G36*
X9793Y5092D02*
X9767Y5042D01*
X3428D01*
X3405Y5077D01*
X3428Y5108D01*
X9781D01*
X9793Y5092D01*
D02*
G37*
G36*
X12168Y5075D02*
X12175Y5070D01*
X12183Y5065D01*
X12191Y5061D01*
X12199Y5057D01*
X12208Y5055D01*
X12218Y5053D01*
X12228Y5051D01*
X12238Y5050D01*
X12249Y5050D01*
X12150Y4951D01*
X12150Y4962D01*
X12149Y4972D01*
X12147Y4982D01*
X12145Y4992D01*
X12143Y5001D01*
X12139Y5009D01*
X12135Y5017D01*
X12130Y5025D01*
X12125Y5032D01*
X12119Y5039D01*
X12161Y5081D01*
X12168Y5075D01*
D02*
G37*
G36*
X3329Y5012D02*
X3337Y5006D01*
X3345Y5000D01*
X3354Y4994D01*
X3362Y4990D01*
X3370Y4986D01*
X3379Y4984D01*
X3388Y4982D01*
X3396Y4980D01*
X3405Y4980D01*
Y4920D01*
X3396Y4920D01*
X3388Y4918D01*
X3379Y4916D01*
X3370Y4914D01*
X3362Y4910D01*
X3354Y4906D01*
X3345Y4900D01*
X3337Y4894D01*
X3329Y4888D01*
X3321Y4880D01*
Y5020D01*
X3329Y5012D01*
D02*
G37*
G36*
X12068Y5002D02*
X12071Y4995D01*
X12075Y4990D01*
X12077Y4988D01*
X12078Y4986D01*
X12080Y4983D01*
X12081Y4979D01*
X12083Y4975D01*
X12084Y4970D01*
X12084Y4965D01*
X12085Y4959D01*
X12085Y4950D01*
X12088Y4942D01*
X12098Y4892D01*
X12097Y4880D01*
X12077Y4842D01*
X11888D01*
X11265Y5465D01*
X11235Y5485D01*
X11200Y5492D01*
X11015D01*
X11008Y5495D01*
X11002Y5495D01*
X10999Y5496D01*
X10996Y5496D01*
X10993Y5497D01*
X10990Y5499D01*
X10986Y5501D01*
X10982Y5503D01*
X10978Y5507D01*
X10973Y5511D01*
X10966Y5517D01*
X10959Y5520D01*
X10912Y5551D01*
X10900Y5553D01*
Y5604D01*
X10922Y5609D01*
X10975Y5644D01*
X11010Y5697D01*
X11023Y5759D01*
X11013Y5808D01*
X11041Y5858D01*
X11212D01*
X12068Y5002D01*
D02*
G37*
G36*
X14162Y4771D02*
X14156Y4763D01*
X14150Y4755D01*
X14144Y4746D01*
X14140Y4738D01*
X14136Y4730D01*
X14134Y4721D01*
X14132Y4712D01*
X14130Y4704D01*
X14130Y4695D01*
X14070D01*
X14070Y4704D01*
X14068Y4712D01*
X14066Y4721D01*
X14064Y4730D01*
X14060Y4738D01*
X14056Y4746D01*
X14050Y4755D01*
X14044Y4763D01*
X14038Y4771D01*
X14030Y4779D01*
X14170D01*
X14162Y4771D01*
D02*
G37*
G36*
X13853Y4460D02*
X13854Y4456D01*
X13857Y4452D01*
X13861Y4449D01*
X13866Y4446D01*
X13873Y4444D01*
X13880Y4442D01*
X13889Y4440D01*
X13898Y4440D01*
X13909Y4439D01*
Y4379D01*
X13898Y4379D01*
X13889Y4378D01*
X13880Y4377D01*
X13873Y4375D01*
X13866Y4373D01*
X13861Y4370D01*
X13857Y4367D01*
X13854Y4363D01*
X13853Y4358D01*
X13852Y4353D01*
Y4465D01*
X13853Y4460D01*
D02*
G37*
G36*
X13148Y4316D02*
X13147Y4321D01*
X13145Y4326D01*
X13142Y4331D01*
X13138Y4335D01*
X13133Y4338D01*
X13126Y4341D01*
X13118Y4343D01*
X13109Y4344D01*
X13098Y4345D01*
X13087Y4346D01*
Y4406D01*
X13098Y4406D01*
X13109Y4407D01*
X13118Y4408D01*
X13126Y4410D01*
X13133Y4413D01*
X13138Y4416D01*
X13142Y4420D01*
X13145Y4425D01*
X13147Y4430D01*
X13148Y4436D01*
Y4316D01*
D02*
G37*
G36*
X12927Y4430D02*
X12928Y4425D01*
X12931Y4420D01*
X12936Y4416D01*
X12941Y4413D01*
X12948Y4410D01*
X12955Y4408D01*
X12964Y4407D01*
X12975Y4406D01*
X12986Y4406D01*
Y4346D01*
X12975Y4345D01*
X12964Y4344D01*
X12955Y4343D01*
X12948Y4341D01*
X12941Y4338D01*
X12936Y4335D01*
X12931Y4331D01*
X12928Y4326D01*
X12927Y4321D01*
X12926Y4316D01*
Y4436D01*
X12927Y4430D01*
D02*
G37*
G36*
X20397Y4115D02*
X20340Y4115D01*
X20199Y4107D01*
X20161Y4102D01*
X20128Y4095D01*
X20099Y4087D01*
X20074Y4077D01*
X20055Y4066D01*
X20040Y4054D01*
X20004Y4090D01*
X20016Y4105D01*
X20027Y4124D01*
X20037Y4149D01*
X20045Y4178D01*
X20052Y4211D01*
X20057Y4249D01*
X20064Y4339D01*
X20065Y4447D01*
X20397Y4115D01*
D02*
G37*
G36*
X21946Y4096D02*
X21888Y4096D01*
X21740Y4086D01*
X21700Y4080D01*
X21665Y4073D01*
X21634Y4064D01*
X21609Y4054D01*
X21588Y4042D01*
X21571Y4029D01*
X21529Y4071D01*
X21542Y4088D01*
X21554Y4109D01*
X21564Y4134D01*
X21573Y4165D01*
X21580Y4200D01*
X21586Y4240D01*
X21594Y4334D01*
X21596Y4446D01*
X21946Y4096D01*
D02*
G37*
G36*
X15766Y3924D02*
X15763Y3919D01*
X15760Y3914D01*
X15757Y3907D01*
X15755Y3900D01*
X15753Y3892D01*
X15752Y3884D01*
X15751Y3874D01*
X15750Y3853D01*
X15650D01*
X15650Y3864D01*
X15648Y3884D01*
X15647Y3892D01*
X15645Y3900D01*
X15643Y3907D01*
X15640Y3914D01*
X15637Y3919D01*
X15634Y3924D01*
X15630Y3929D01*
X15770D01*
X15766Y3924D01*
D02*
G37*
G36*
X5472Y4187D02*
X5479Y4169D01*
X5489Y4155D01*
X5503Y4141D01*
X5521Y4130D01*
X5543Y4121D01*
X5569Y4114D01*
X5599Y4110D01*
X5633Y4107D01*
X5672Y4105D01*
Y3905D01*
X5633Y3905D01*
X5599Y3902D01*
X5569Y3896D01*
X5543Y3889D01*
X5521Y3880D01*
X5503Y3869D01*
X5489Y3857D01*
X5479Y3841D01*
X5472Y3825D01*
X5470Y3805D01*
Y4205D01*
X5472Y4187D01*
D02*
G37*
G36*
X4491Y3805D02*
X4489Y3825D01*
X4483Y3841D01*
X4473Y3857D01*
X4459Y3869D01*
X4441Y3880D01*
X4419Y3889D01*
X4392Y3896D01*
X4362Y3902D01*
X4328Y3905D01*
X4290Y3905D01*
Y4105D01*
X4328Y4107D01*
X4362Y4110D01*
X4392Y4114D01*
X4419Y4121D01*
X4441Y4130D01*
X4459Y4141D01*
X4473Y4155D01*
X4483Y4169D01*
X4489Y4187D01*
X4491Y4205D01*
Y3805D01*
D02*
G37*
G36*
X11651Y3666D02*
X11656Y3602D01*
X11661Y3576D01*
X11667Y3554D01*
X11675Y3536D01*
X11684Y3522D01*
X11694Y3512D01*
X11706Y3506D01*
X11719Y3504D01*
X11381D01*
X11394Y3506D01*
X11406Y3512D01*
X11416Y3522D01*
X11425Y3536D01*
X11433Y3554D01*
X11439Y3576D01*
X11444Y3602D01*
X11447Y3632D01*
X11449Y3666D01*
X11450Y3704D01*
X11650D01*
X11651Y3666D01*
D02*
G37*
G36*
X10980Y3553D02*
X10981Y3542D01*
X10983Y3533D01*
X10985Y3525D01*
X10987Y3518D01*
X10991Y3513D01*
X10995Y3508D01*
X10999Y3505D01*
X11004Y3504D01*
X11010Y3503D01*
X10890D01*
X10896Y3504D01*
X10901Y3505D01*
X10905Y3508D01*
X10909Y3513D01*
X10912Y3518D01*
X10915Y3525D01*
X10917Y3533D01*
X10919Y3542D01*
X10920Y3553D01*
X10920Y3564D01*
X10980D01*
X10980Y3553D01*
D02*
G37*
G36*
X10380D02*
X10381Y3542D01*
X10383Y3533D01*
X10385Y3525D01*
X10388Y3518D01*
X10391Y3513D01*
X10395Y3508D01*
X10399Y3505D01*
X10404Y3504D01*
X10410Y3503D01*
X10290D01*
X10296Y3504D01*
X10301Y3505D01*
X10305Y3508D01*
X10309Y3513D01*
X10312Y3518D01*
X10315Y3525D01*
X10317Y3533D01*
X10319Y3542D01*
X10320Y3553D01*
X10320Y3564D01*
X10380D01*
X10380Y3553D01*
D02*
G37*
G36*
X9801Y3644D02*
X9807Y3580D01*
X9812Y3554D01*
X9819Y3532D01*
X9827Y3514D01*
X9837Y3500D01*
X9849Y3490D01*
X9862Y3484D01*
X9876Y3482D01*
X9524D01*
X9538Y3484D01*
X9551Y3490D01*
X9563Y3500D01*
X9573Y3514D01*
X9581Y3532D01*
X9588Y3554D01*
X9593Y3580D01*
X9597Y3610D01*
X9599Y3644D01*
X9600Y3682D01*
X9800D01*
X9801Y3644D01*
D02*
G37*
G36*
X9524Y3169D02*
X9522Y3180D01*
X9516Y3190D01*
X9506Y3198D01*
X9492Y3205D01*
X9474Y3212D01*
X9452Y3217D01*
X9426Y3221D01*
X9396Y3223D01*
X9341Y3225D01*
X9338Y3225D01*
X9274Y3221D01*
X9248Y3217D01*
X9226Y3212D01*
X9208Y3205D01*
X9194Y3198D01*
X9184Y3190D01*
X9178Y3180D01*
X9176Y3169D01*
Y3482D01*
X9178Y3471D01*
X9184Y3462D01*
X9194Y3453D01*
X9208Y3446D01*
X9226Y3440D01*
X9248Y3435D01*
X9274Y3431D01*
X9304Y3428D01*
X9359Y3426D01*
X9362Y3426D01*
X9426Y3431D01*
X9452Y3435D01*
X9474Y3440D01*
X9492Y3446D01*
X9506Y3453D01*
X9516Y3462D01*
X9522Y3471D01*
X9524Y3482D01*
Y3169D01*
D02*
G37*
G36*
X8824D02*
X8822Y3180D01*
X8816Y3190D01*
X8806Y3198D01*
X8792Y3205D01*
X8774Y3212D01*
X8752Y3217D01*
X8726Y3221D01*
X8696Y3223D01*
X8641Y3225D01*
X8638Y3225D01*
X8574Y3221D01*
X8548Y3217D01*
X8526Y3212D01*
X8508Y3205D01*
X8494Y3198D01*
X8484Y3190D01*
X8478Y3180D01*
X8476Y3169D01*
Y3482D01*
X8478Y3471D01*
X8484Y3462D01*
X8494Y3453D01*
X8508Y3446D01*
X8526Y3440D01*
X8548Y3435D01*
X8574Y3431D01*
X8604Y3428D01*
X8659Y3426D01*
X8662Y3426D01*
X8726Y3431D01*
X8752Y3435D01*
X8774Y3440D01*
X8792Y3446D01*
X8806Y3453D01*
X8816Y3462D01*
X8822Y3471D01*
X8824Y3482D01*
Y3169D01*
D02*
G37*
G36*
X13272Y3492D02*
X13277Y3488D01*
X13283Y3485D01*
X13289Y3483D01*
X13296Y3481D01*
X13304Y3479D01*
X13313Y3477D01*
X13322Y3476D01*
X13343Y3476D01*
Y3376D01*
X13332Y3375D01*
X13313Y3374D01*
X13304Y3372D01*
X13296Y3371D01*
X13289Y3368D01*
X13283Y3366D01*
X13277Y3363D01*
X13272Y3359D01*
X13268Y3356D01*
Y3496D01*
X13272Y3492D01*
D02*
G37*
G36*
X7780Y3531D02*
X7786Y3514D01*
X7796Y3499D01*
X7810Y3486D01*
X7828Y3475D01*
X7850Y3466D01*
X7876Y3459D01*
X7906Y3454D01*
X7940Y3451D01*
X7963Y3450D01*
X8074Y3458D01*
X8092Y3461D01*
X8106Y3466D01*
X8116Y3470D01*
X8122Y3476D01*
X8124Y3482D01*
Y3169D01*
X8122Y3185D01*
X8116Y3198D01*
X8106Y3210D01*
X8092Y3221D01*
X8074Y3230D01*
X8052Y3237D01*
X8026Y3243D01*
X7996Y3247D01*
X7962Y3249D01*
X7954Y3249D01*
X7940Y3249D01*
X7906Y3246D01*
X7876Y3241D01*
X7850Y3234D01*
X7828Y3225D01*
X7810Y3214D01*
X7796Y3201D01*
X7786Y3186D01*
X7780Y3169D01*
X7778Y3150D01*
Y3550D01*
X7780Y3531D01*
D02*
G37*
G36*
X10858Y4062D02*
Y3573D01*
X10855Y3566D01*
X10855Y3565D01*
X10720D01*
Y3142D01*
X10580D01*
Y3565D01*
X10445D01*
X10445Y3566D01*
X10442Y3573D01*
Y4408D01*
X10492Y4428D01*
X10858Y4062D01*
D02*
G37*
G36*
X20308Y3128D02*
X20278Y3136D01*
X20251Y3141D01*
X20224Y3144D01*
X20199Y3144D01*
X20176Y3142D01*
X20154Y3138D01*
X20134Y3131D01*
X20115Y3122D01*
X20098Y3111D01*
X20083Y3097D01*
X20047Y3133D01*
X20061Y3148D01*
X20072Y3165D01*
X20081Y3184D01*
X20088Y3204D01*
X20092Y3226D01*
X20094Y3249D01*
X20094Y3274D01*
X20091Y3301D01*
X20086Y3328D01*
X20078Y3358D01*
X20308Y3128D01*
D02*
G37*
G36*
X21682Y3097D02*
X21677Y3100D01*
X21672Y3102D01*
X21665D01*
X21658Y3100D01*
X21650Y3097D01*
X21641Y3092D01*
X21631Y3085D01*
X21621Y3077D01*
X21597Y3054D01*
X21554Y3097D01*
X21566Y3109D01*
X21585Y3131D01*
X21592Y3141D01*
X21597Y3150D01*
X21600Y3158D01*
X21602Y3165D01*
Y3172D01*
X21600Y3177D01*
X21597Y3182D01*
X21682Y3097D01*
D02*
G37*
G36*
X11580Y2959D02*
X11581Y2949D01*
X11583Y2940D01*
X11585Y2932D01*
X11588Y2925D01*
X11591Y2920D01*
X11595Y2915D01*
X11599Y2912D01*
X11604Y2910D01*
X11610Y2910D01*
X11490D01*
X11496Y2910D01*
X11501Y2912D01*
X11505Y2915D01*
X11509Y2920D01*
X11513Y2925D01*
X11515Y2932D01*
X11517Y2940D01*
X11519Y2949D01*
X11520Y2959D01*
X11520Y2971D01*
X11580D01*
X11580Y2959D01*
D02*
G37*
G36*
X10380D02*
X10381Y2949D01*
X10383Y2940D01*
X10385Y2932D01*
X10388Y2925D01*
X10391Y2920D01*
X10395Y2915D01*
X10399Y2912D01*
X10404Y2910D01*
X10410Y2910D01*
X10290D01*
X10296Y2910D01*
X10301Y2912D01*
X10305Y2915D01*
X10309Y2920D01*
X10312Y2925D01*
X10315Y2932D01*
X10317Y2940D01*
X10319Y2949D01*
X10320Y2959D01*
X10320Y2971D01*
X10380D01*
X10380Y2959D01*
D02*
G37*
G36*
X6861Y2900D02*
X6859Y2919D01*
X6853Y2936D01*
X6843Y2951D01*
X6829Y2964D01*
X6811Y2975D01*
X6789Y2984D01*
X6762Y2991D01*
X6732Y2996D01*
X6698Y2999D01*
X6660Y3000D01*
Y3200D01*
X6698Y3201D01*
X6732Y3204D01*
X6762Y3209D01*
X6789Y3216D01*
X6811Y3225D01*
X6829Y3236D01*
X6843Y3249D01*
X6853Y3264D01*
X6859Y3281D01*
X6861Y3300D01*
Y2900D01*
D02*
G37*
G36*
X5472Y3281D02*
X5479Y3264D01*
X5489Y3249D01*
X5503Y3236D01*
X5521Y3225D01*
X5543Y3216D01*
X5569Y3209D01*
X5599Y3204D01*
X5633Y3201D01*
X5672Y3200D01*
Y3000D01*
X5633Y2999D01*
X5599Y2996D01*
X5569Y2991D01*
X5543Y2984D01*
X5521Y2975D01*
X5503Y2964D01*
X5489Y2951D01*
X5479Y2936D01*
X5472Y2919D01*
X5470Y2900D01*
Y3300D01*
X5472Y3281D01*
D02*
G37*
G36*
X4001Y2944D02*
X4007Y2880D01*
X4012Y2854D01*
X4019Y2832D01*
X4027Y2814D01*
X4037Y2800D01*
X4049Y2790D01*
X4062Y2784D01*
X4076Y2782D01*
X3724D01*
X3738Y2784D01*
X3751Y2790D01*
X3763Y2800D01*
X3773Y2814D01*
X3781Y2832D01*
X3788Y2854D01*
X3793Y2880D01*
X3797Y2910D01*
X3799Y2944D01*
X3800Y2982D01*
X4000D01*
X4001Y2944D01*
D02*
G37*
G36*
X3301D02*
X3307Y2880D01*
X3312Y2854D01*
X3319Y2832D01*
X3327Y2814D01*
X3337Y2800D01*
X3349Y2790D01*
X3362Y2784D01*
X3376Y2782D01*
X3024D01*
X3038Y2784D01*
X3051Y2790D01*
X3063Y2800D01*
X3073Y2814D01*
X3081Y2832D01*
X3088Y2854D01*
X3093Y2880D01*
X3097Y2910D01*
X3099Y2944D01*
X3100Y2982D01*
X3300D01*
X3301Y2944D01*
D02*
G37*
G36*
X3724Y2469D02*
X3722Y2480D01*
X3716Y2490D01*
X3706Y2498D01*
X3692Y2505D01*
X3674Y2512D01*
X3652Y2517D01*
X3626Y2521D01*
X3596Y2523D01*
X3541Y2525D01*
X3538Y2525D01*
X3474Y2521D01*
X3448Y2517D01*
X3426Y2512D01*
X3408Y2505D01*
X3394Y2498D01*
X3384Y2490D01*
X3378Y2480D01*
X3376Y2469D01*
Y2782D01*
X3378Y2771D01*
X3384Y2762D01*
X3394Y2753D01*
X3408Y2746D01*
X3426Y2740D01*
X3448Y2735D01*
X3474Y2731D01*
X3504Y2728D01*
X3559Y2726D01*
X3562Y2726D01*
X3626Y2731D01*
X3652Y2735D01*
X3674Y2740D01*
X3692Y2746D01*
X3706Y2753D01*
X3716Y2762D01*
X3722Y2771D01*
X3724Y2782D01*
Y2469D01*
D02*
G37*
G36*
X19947Y2540D02*
X19946Y2546D01*
X19945Y2551D01*
X19942Y2555D01*
X19937Y2559D01*
X19932Y2562D01*
X19925Y2565D01*
X19917Y2567D01*
X19908Y2569D01*
X19897Y2570D01*
X19886Y2570D01*
Y2630D01*
X19897Y2630D01*
X19908Y2631D01*
X19917Y2633D01*
X19925Y2635D01*
X19932Y2637D01*
X19937Y2641D01*
X19942Y2645D01*
X19945Y2649D01*
X19946Y2654D01*
X19947Y2660D01*
Y2540D01*
D02*
G37*
G36*
X11604Y2596D02*
X11599Y2595D01*
X11595Y2592D01*
X11591Y2587D01*
X11588Y2582D01*
X11585Y2575D01*
X11583Y2567D01*
X11581Y2558D01*
X11580Y2547D01*
X11580Y2536D01*
X11520D01*
X11520Y2547D01*
X11519Y2558D01*
X11517Y2567D01*
X11515Y2575D01*
X11513Y2582D01*
X11509Y2587D01*
X11505Y2592D01*
X11501Y2595D01*
X11496Y2596D01*
X11490Y2597D01*
X11610D01*
X11604Y2596D01*
D02*
G37*
G36*
X11004D02*
X10999Y2595D01*
X10995Y2592D01*
X10991Y2587D01*
X10987Y2582D01*
X10985Y2575D01*
X10983Y2567D01*
X10981Y2558D01*
X10980Y2547D01*
X10980Y2536D01*
X10920D01*
X10920Y2547D01*
X10919Y2558D01*
X10917Y2567D01*
X10915Y2575D01*
X10912Y2582D01*
X10909Y2587D01*
X10905Y2592D01*
X10901Y2595D01*
X10896Y2596D01*
X10890Y2597D01*
X11010D01*
X11004Y2596D01*
D02*
G37*
G36*
X19579Y2662D02*
X19587Y2656D01*
X19595Y2650D01*
X19604Y2644D01*
X19612Y2640D01*
X19620Y2636D01*
X19629Y2634D01*
X19638Y2632D01*
X19646Y2630D01*
X19655Y2630D01*
Y2570D01*
X19646Y2570D01*
X19638Y2568D01*
X19629Y2566D01*
X19620Y2564D01*
X19612Y2560D01*
X19604Y2556D01*
X19595Y2550D01*
X19587Y2544D01*
X19579Y2538D01*
X19571Y2530D01*
Y2670D01*
X19579Y2662D01*
D02*
G37*
G36*
X20856Y2756D02*
X20862Y2744D01*
X20872Y2734D01*
X20886Y2725D01*
X20904Y2717D01*
X20926Y2711D01*
X20952Y2706D01*
X20982Y2703D01*
X21016Y2701D01*
X21054Y2700D01*
Y2500D01*
X21016Y2499D01*
X20952Y2494D01*
X20926Y2489D01*
X20904Y2483D01*
X20886Y2475D01*
X20872Y2466D01*
X20862Y2456D01*
X20856Y2444D01*
X20854Y2431D01*
X20841Y2429D01*
X20830Y2423D01*
X20819Y2413D01*
X20811Y2399D01*
X20803Y2381D01*
X20797Y2359D01*
X20792Y2333D01*
X20789Y2303D01*
X20787Y2269D01*
X20786Y2249D01*
X20787Y2238D01*
X20793Y2148D01*
X20798Y2126D01*
X20803Y2108D01*
X20809Y2094D01*
X20815Y2084D01*
X20823Y2078D01*
X20832Y2076D01*
X20519D01*
X20532Y2078D01*
X20543Y2084D01*
X20553Y2094D01*
X20562Y2108D01*
X20569Y2126D01*
X20575Y2148D01*
X20580Y2174D01*
X20583Y2204D01*
X20586Y2265D01*
X20586Y2269D01*
X20579Y2359D01*
X20574Y2381D01*
X20569Y2399D01*
X20563Y2413D01*
X20556Y2423D01*
X20548Y2429D01*
X20539Y2431D01*
X20854D01*
Y2769D01*
X20856Y2756D01*
D02*
G37*
G36*
X13852Y2982D02*
X12320Y1449D01*
X12314Y1448D01*
X12301Y1437D01*
X12288Y1430D01*
X12270Y1423D01*
X12246Y1417D01*
X12217Y1412D01*
X12182Y1409D01*
X12144Y1408D01*
X12049Y1412D01*
X11995Y1417D01*
X11984Y1414D01*
X11950Y1418D01*
X11842Y1404D01*
X11741Y1362D01*
X11654Y1296D01*
X11645Y1283D01*
X11597Y1299D01*
Y1419D01*
X13206Y3028D01*
X13833D01*
X13852Y2982D01*
D02*
G37*
G36*
X12393Y1351D02*
X12381Y1336D01*
X12370Y1316D01*
X12359Y1291D01*
X12349Y1260D01*
X12340Y1224D01*
X12323Y1138D01*
X12309Y1030D01*
X12303Y968D01*
X11989Y1352D01*
X12045Y1347D01*
X12143Y1343D01*
X12186Y1344D01*
X12225Y1348D01*
X12259Y1353D01*
X12290Y1361D01*
X12316Y1371D01*
X12337Y1383D01*
X12355Y1397D01*
X12393Y1351D01*
D02*
G37*
G36*
X10982Y1545D02*
X10989Y1522D01*
X11000Y1496D01*
X11015Y1468D01*
X11035Y1438D01*
X11059Y1406D01*
X11120Y1334D01*
X11198Y1253D01*
X10702D01*
X10743Y1295D01*
X10841Y1406D01*
X10865Y1438D01*
X10885Y1468D01*
X10900Y1496D01*
X10911Y1522D01*
X10918Y1545D01*
X10920Y1566D01*
X10980D01*
X10982Y1545D01*
D02*
G37*
G36*
X13371Y1379D02*
X13358Y1363D01*
X13346Y1342D01*
X13336Y1316D01*
X13327Y1285D01*
X13320Y1250D01*
X13314Y1210D01*
X13306Y1116D01*
X13304Y1004D01*
X12954Y1354D01*
X13012Y1355D01*
X13160Y1364D01*
X13200Y1370D01*
X13235Y1377D01*
X13266Y1386D01*
X13292Y1396D01*
X13313Y1408D01*
X13329Y1421D01*
X13371Y1379D01*
D02*
G37*
G36*
X10371D02*
X10358Y1363D01*
X10346Y1342D01*
X10336Y1316D01*
X10327Y1285D01*
X10320Y1250D01*
X10314Y1210D01*
X10306Y1116D01*
X10304Y1004D01*
X9954Y1354D01*
X10012Y1355D01*
X10160Y1364D01*
X10200Y1370D01*
X10235Y1377D01*
X10266Y1386D01*
X10292Y1396D01*
X10313Y1408D01*
X10329Y1421D01*
X10371Y1379D01*
D02*
G37*
G36*
X11320Y2535D02*
X11455D01*
X11455Y2534D01*
X11458Y2527D01*
Y2388D01*
X10885Y1815D01*
X10865Y1785D01*
X10858Y1750D01*
Y1578D01*
X10855Y1573D01*
X10854Y1557D01*
X10850Y1543D01*
X10842Y1525D01*
X10829Y1502D01*
X10812Y1475D01*
X10791Y1447D01*
X10696Y1339D01*
X10656Y1299D01*
X10654Y1296D01*
X10654Y1296D01*
X10588Y1209D01*
X10546Y1108D01*
X10532Y1000D01*
X10546Y892D01*
X10588Y791D01*
X10654Y704D01*
X10667Y695D01*
X10651Y647D01*
X10249D01*
X10233Y695D01*
X10246Y704D01*
X10312Y791D01*
X10354Y892D01*
X10368Y999D01*
X10369Y1003D01*
X10371Y1113D01*
X10378Y1203D01*
X10384Y1239D01*
X10390Y1269D01*
X10397Y1295D01*
X10405Y1313D01*
X10412Y1326D01*
X10422Y1338D01*
X10424Y1344D01*
X10465Y1385D01*
X10485Y1415D01*
X10492Y1450D01*
Y1712D01*
X11015Y2235D01*
X11035Y2265D01*
X11042Y2300D01*
Y2527D01*
X11045Y2534D01*
X11045Y2535D01*
X11180D01*
Y2958D01*
X11320D01*
Y2535D01*
D02*
G37*
G36*
X9305Y936D02*
X9313Y786D01*
X9319Y745D01*
X9326Y710D01*
X9334Y679D01*
X9344Y654D01*
X9355Y633D01*
X9368Y617D01*
X9333Y582D01*
X9317Y595D01*
X9296Y606D01*
X9271Y616D01*
X9240Y624D01*
X9205Y631D01*
X9164Y637D01*
X9069Y644D01*
X8954Y646D01*
X9304Y996D01*
X9305Y936D01*
D02*
G37*
G36*
X8305D02*
X8313Y786D01*
X8319Y745D01*
X8326Y710D01*
X8334Y679D01*
X8344Y654D01*
X8355Y633D01*
X8368Y617D01*
X8333Y582D01*
X8317Y595D01*
X8296Y606D01*
X8271Y616D01*
X8240Y624D01*
X8205Y631D01*
X8164Y637D01*
X8069Y644D01*
X7954Y646D01*
X8304Y996D01*
X8305Y936D01*
D02*
G37*
G36*
X18004Y7196D02*
X17999Y7195D01*
X17995Y7192D01*
X17991Y7187D01*
X17988Y7182D01*
X17985Y7175D01*
X17983Y7167D01*
X17981Y7158D01*
X17980Y7147D01*
X17980Y7136D01*
X17920D01*
X17920Y7147D01*
X17919Y7158D01*
X17917Y7167D01*
X17915Y7175D01*
X17912Y7182D01*
X17909Y7187D01*
X17905Y7192D01*
X17901Y7195D01*
X17896Y7196D01*
X17890Y7197D01*
X18010D01*
X18004Y7196D01*
D02*
G37*
G36*
X17980Y6896D02*
X17982Y6888D01*
X17984Y6879D01*
X17986Y6870D01*
X17990Y6862D01*
X17994Y6854D01*
X18000Y6845D01*
X18006Y6837D01*
X18012Y6829D01*
X18020Y6821D01*
X17880D01*
X17888Y6829D01*
X17894Y6837D01*
X17900Y6845D01*
X17906Y6854D01*
X17910Y6862D01*
X17914Y6870D01*
X17916Y6879D01*
X17918Y6888D01*
X17920Y6896D01*
X17920Y6905D01*
X17980D01*
X17980Y6896D01*
D02*
G37*
G36*
X16408Y6800D02*
X16396Y6799D01*
X16386Y6797D01*
X16376Y6795D01*
X16366Y6793D01*
X16357Y6789D01*
X16348Y6786D01*
X16340Y6781D01*
X16333Y6776D01*
X16326Y6771D01*
X16320Y6765D01*
X16273Y6804D01*
X16279Y6810D01*
X16285Y6817D01*
X16289Y6825D01*
X16293Y6833D01*
X16296Y6842D01*
X16299Y6850D01*
X16300Y6860D01*
X16301Y6870D01*
X16301Y6880D01*
X16300Y6890D01*
X16408Y6800D01*
D02*
G37*
G36*
X15563Y6008D02*
X15557Y6001D01*
X15551Y5994D01*
X15547Y5987D01*
X15543Y5979D01*
X15540Y5970D01*
X15537Y5961D01*
X15536Y5952D01*
X15535Y5942D01*
X15535Y5932D01*
X15536Y5921D01*
X15428Y6012D01*
X15440Y6013D01*
X15450Y6014D01*
X15460Y6017D01*
X15470Y6019D01*
X15479Y6022D01*
X15488Y6026D01*
X15496Y6031D01*
X15503Y6035D01*
X15510Y6041D01*
X15516Y6047D01*
X15563Y6008D01*
D02*
G37*
G36*
X16762Y6371D02*
X16756Y6363D01*
X16750Y6355D01*
X16744Y6346D01*
X16740Y6338D01*
X16736Y6330D01*
X16734Y6321D01*
X16732Y6312D01*
X16730Y6304D01*
X16730Y6295D01*
X16670D01*
X16670Y6304D01*
X16668Y6312D01*
X16666Y6321D01*
X16664Y6330D01*
X16660Y6338D01*
X16656Y6346D01*
X16650Y6355D01*
X16644Y6363D01*
X16638Y6371D01*
X16630Y6379D01*
X16770D01*
X16762Y6371D01*
D02*
G37*
G36*
X16730Y5975D02*
X16731Y5964D01*
X16733Y5955D01*
X16735Y5948D01*
X16738Y5941D01*
X16741Y5936D01*
X16745Y5931D01*
X16749Y5928D01*
X16754Y5927D01*
X16760Y5926D01*
X16640D01*
X16646Y5927D01*
X16651Y5928D01*
X16655Y5931D01*
X16659Y5936D01*
X16662Y5941D01*
X16665Y5948D01*
X16667Y5955D01*
X16669Y5964D01*
X16670Y5975D01*
X16670Y5986D01*
X16730D01*
X16730Y5975D01*
D02*
G37*
G36*
X16779Y5575D02*
X16774Y5573D01*
X16769Y5570D01*
X16765Y5565D01*
X16762Y5560D01*
X16759Y5553D01*
X16757Y5545D01*
X16756Y5536D01*
X16755Y5526D01*
X16754Y5514D01*
X16694D01*
X16694Y5526D01*
X16693Y5536D01*
X16692Y5545D01*
X16690Y5553D01*
X16687Y5560D01*
X16684Y5565D01*
X16680Y5570D01*
X16675Y5573D01*
X16670Y5575D01*
X16664Y5575D01*
X16784D01*
X16779Y5575D01*
D02*
G37*
G36*
X17782Y5190D02*
X17782Y5196D01*
X17780Y5201D01*
X17777Y5205D01*
X17773Y5209D01*
X17767Y5213D01*
X17760Y5215D01*
X17752Y5217D01*
X17743Y5219D01*
X17733Y5220D01*
X17721Y5220D01*
Y5280D01*
X17733Y5280D01*
X17743Y5281D01*
X17752Y5283D01*
X17760Y5285D01*
X17767Y5288D01*
X17773Y5291D01*
X17777Y5295D01*
X17780Y5299D01*
X17782Y5304D01*
X17782Y5310D01*
Y5190D01*
D02*
G37*
G36*
X16762Y4821D02*
X16756Y4813D01*
X16750Y4805D01*
X16744Y4796D01*
X16740Y4788D01*
X16736Y4780D01*
X16734Y4771D01*
X16732Y4762D01*
X16730Y4754D01*
X16730Y4745D01*
X16670D01*
X16670Y4754D01*
X16668Y4762D01*
X16666Y4771D01*
X16664Y4780D01*
X16660Y4788D01*
X16656Y4796D01*
X16650Y4805D01*
X16644Y4813D01*
X16638Y4821D01*
X16630Y4829D01*
X16770D01*
X16762Y4821D01*
D02*
G37*
G36*
X17782Y4593D02*
X17782Y4599D01*
X17780Y4604D01*
X17777Y4609D01*
X17773Y4613D01*
X17767Y4616D01*
X17760Y4619D01*
X17752Y4621D01*
X17743Y4622D01*
X17733Y4623D01*
X17721Y4623D01*
Y4683D01*
X17733Y4684D01*
X17743Y4685D01*
X17752Y4686D01*
X17760Y4688D01*
X17767Y4691D01*
X17773Y4694D01*
X17777Y4698D01*
X17780Y4703D01*
X17782Y4708D01*
X17782Y4713D01*
Y4593D01*
D02*
G37*
G36*
X16730Y4375D02*
X16731Y4364D01*
X16733Y4355D01*
X16735Y4348D01*
X16738Y4341D01*
X16741Y4336D01*
X16745Y4331D01*
X16749Y4328D01*
X16754Y4327D01*
X16760Y4326D01*
X16640D01*
X16646Y4327D01*
X16651Y4328D01*
X16655Y4331D01*
X16659Y4336D01*
X16662Y4341D01*
X16665Y4348D01*
X16667Y4355D01*
X16669Y4364D01*
X16670Y4375D01*
X16670Y4386D01*
X16730D01*
X16730Y4375D01*
D02*
G37*
G36*
X16830Y4204D02*
X16832Y4199D01*
X16835Y4195D01*
X16839Y4191D01*
X16845Y4187D01*
X16852Y4185D01*
X16859Y4183D01*
X16869Y4181D01*
X16879Y4180D01*
X16891Y4180D01*
Y4120D01*
X16879Y4120D01*
X16869Y4119D01*
X16859Y4117D01*
X16852Y4115D01*
X16845Y4112D01*
X16839Y4109D01*
X16835Y4105D01*
X16832Y4101D01*
X16830Y4096D01*
X16829Y4090D01*
Y4210D01*
X16830Y4204D01*
D02*
G37*
D10*
X15700Y3600D02*
Y4000D01*
X13196Y3426D02*
X15526D01*
X15700Y3600D01*
X16330Y7470D02*
X16426Y7374D01*
X16330Y7470D02*
Y7558D01*
X16246Y7642D02*
X16330Y7558D01*
X15177Y7642D02*
X16246D01*
X16426Y7374D02*
X16700D01*
X14454Y6900D02*
Y6919D01*
X15177Y7642D01*
X-50Y3400D02*
X2200D01*
X-50Y6500D02*
X2200D01*
X-50Y-50D02*
Y3400D01*
Y6500D02*
Y9950D01*
X2200Y3400D02*
Y6500D01*
X-50Y-50D02*
X22950D01*
Y9950D01*
X-50D02*
X22950D01*
D37*
X14050Y5150D02*
X14665D01*
X14750Y5235D02*
Y6650D01*
X14665Y5150D02*
X14750Y5235D01*
X13650Y4750D02*
X14050Y5150D01*
X11850Y4750D02*
X13650D01*
X11200Y5400D02*
X11850Y4750D01*
X10850Y5400D02*
X11200D01*
X16900Y4150D02*
X16978Y4228D01*
X16700Y4150D02*
X16900D01*
X16978Y4228D02*
Y4478D01*
X16674Y4150D02*
X16700D01*
X17153Y4653D02*
X17950D01*
X16978Y4478D02*
X17153Y4653D01*
X16674Y4150D02*
X16700Y4176D01*
Y4900D01*
X10550Y6350D02*
X11784D01*
X9800Y6600D02*
X11150D01*
X9550Y6850D02*
X9800Y6600D01*
X12934Y7500D02*
X14200D01*
X11784Y6350D02*
X12934Y7500D01*
X12803Y7200D02*
X14200D01*
X11753Y6150D02*
X12803Y7200D01*
X10350Y6150D02*
X11753D01*
X5150Y5450D02*
X7400D01*
X11250Y5950D02*
X12250Y4950D01*
X8900Y6600D02*
X9550Y5950D01*
X11250D01*
X9550Y6850D02*
Y7303D01*
X10350Y3000D02*
X10400Y3050D01*
X11500D02*
X11550Y3000D01*
X10400Y3050D02*
X11500D01*
X10950Y1750D02*
X11550Y2350D01*
X10950Y1000D02*
Y1750D01*
X11550Y2350D02*
Y2753D01*
X20400Y2760D02*
X20520Y2880D01*
X20127Y2167D02*
X20400Y2440D01*
Y2760D01*
X12000Y1000D02*
X14000Y3000D01*
X11950Y1000D02*
X12000D01*
X14000Y3000D02*
X20900D01*
X14117Y2167D02*
X20127D01*
X12950Y1000D02*
X14117Y2167D01*
X20520Y2880D02*
X21380D01*
X21950Y3450D01*
X20900Y3000D02*
X21200Y3300D01*
Y3700D02*
X21950Y4450D01*
X21200Y3300D02*
Y3700D01*
X19500Y2600D02*
X20103D01*
X10350Y3347D02*
Y4450D01*
X3250Y4950D02*
X9850D01*
X10350Y4450D01*
X10950Y3347D02*
Y4100D01*
X9850Y5200D02*
X10950Y4100D01*
X3250Y5200D02*
X9850D01*
X14100Y4600D02*
Y4850D01*
X13501Y4409D02*
X13909D01*
X14100Y4600D01*
X13468Y4376D02*
X13501Y4409D01*
X13500Y5392D02*
X13508Y5400D01*
X14300D01*
X12750Y4376D02*
X13468D01*
X12750Y5424D02*
X13468D01*
X13500Y5392D01*
X8900Y6850D02*
Y7300D01*
Y6600D02*
Y6850D01*
X17947Y5250D02*
X17950Y5247D01*
X16850Y5250D02*
X17947D01*
X16724Y5376D02*
Y5750D01*
Y5376D02*
X16850Y5250D01*
X17950Y5247D02*
X17971Y5226D01*
X16700Y5774D02*
X16724Y5750D01*
X16700Y5774D02*
Y6450D01*
X16400Y6888D02*
Y6900D01*
X15436Y5924D02*
X16400Y6888D01*
X15436Y5912D02*
Y5924D01*
X15126Y7374D02*
X16029D01*
X15000Y6900D02*
Y7248D01*
X15126Y7374D01*
X17950Y6750D02*
Y7353D01*
X16029Y7374D02*
X16050Y7353D01*
X14750Y6650D02*
X15000Y6900D01*
X5250Y6700D02*
X5750Y6200D01*
X5250Y7600D02*
X6050Y8400D01*
X5250Y6700D02*
Y7600D01*
X5750Y7250D02*
Y7930D01*
X6100Y8280D02*
X8770D01*
X5750Y7930D02*
X6100Y8280D01*
X6050Y8400D02*
X9350D01*
X8770Y8280D02*
X8900Y8150D01*
X9350Y8400D02*
X9550Y8200D01*
Y7897D02*
Y8200D01*
X8900Y7897D02*
Y8150D01*
X10950Y2300D02*
Y2753D01*
X10400Y1750D02*
X10950Y2300D01*
X10400Y1450D02*
Y1750D01*
X9950Y1000D02*
X10400Y1450D01*
X11550Y2753D02*
Y3000D01*
X10350Y2753D02*
Y3000D01*
D38*
X6750Y4150D02*
X9500D01*
X9700Y3950D01*
X6427Y4750D02*
X8050D01*
X5683Y4006D02*
X6427Y4750D01*
X19526Y7926D02*
X19950Y8350D01*
X4981Y4006D02*
X5683D01*
X9700Y3326D02*
Y3950D01*
X9000Y3326D02*
X9700D01*
X8300D02*
X9000D01*
X7281Y3100D02*
X7606Y2774D01*
X8276Y3350D02*
X8300Y3326D01*
X7569Y3350D02*
X8276D01*
X7319Y3100D02*
X7569Y3350D01*
X7724Y7324D02*
X8250D01*
X7650Y7250D02*
X7724Y7324D01*
X7450Y7250D02*
X7650D01*
X11550Y3347D02*
Y4000D01*
X10850Y4700D02*
X11550Y4000D01*
X8941Y5759D02*
X10859D01*
X8250Y6450D02*
X8941Y5759D01*
X8250Y6450D02*
Y7324D01*
X3900Y2626D02*
Y3800D01*
X3200Y3200D02*
X3450Y3450D01*
X17233Y8436D02*
X17350Y8318D01*
X16050Y8322D02*
X16163Y8436D01*
X17233D01*
X16050Y7947D02*
Y8322D01*
X17350Y7947D02*
Y8318D01*
X4981Y3100D02*
X7281D01*
X20686Y1910D02*
Y2589D01*
X20676Y1900D02*
X20686Y1910D01*
Y2589D02*
X20697Y2600D01*
X22150D01*
X22464Y2914D01*
Y5936D01*
X21950Y6450D02*
X22464Y5936D01*
X19300Y9600D02*
X19950Y8950D01*
X4600Y9600D02*
X19300D01*
X3950Y8950D02*
X4600Y9600D01*
X19950Y8350D02*
X20400Y7900D01*
Y6450D02*
Y7900D01*
X18600Y7926D02*
X19526D01*
X19950Y8350D02*
Y8950D01*
X17950Y7947D02*
X17960Y7936D01*
X18590D01*
X18600Y7926D01*
X17350Y7947D02*
X17950D01*
X20400Y6450D02*
X21950D01*
Y7250D01*
X20950Y8250D02*
X21950Y7250D01*
X20950Y8250D02*
Y8950D01*
X3700Y5450D02*
Y7700D01*
X3450Y3450D02*
Y3700D01*
X3900Y3800D02*
X4105Y4006D01*
X4981D01*
X3200Y2626D02*
X3900D01*
X3200D02*
Y3200D01*
X3700Y7700D02*
X4950Y8950D01*
X6750Y7250D02*
Y7294D01*
D39*
X16700Y7374D02*
X16710Y7364D01*
X17340D01*
X17350Y7353D01*
D40*
X6750Y7250D02*
D03*
Y6200D02*
D03*
D41*
X5750Y7250D02*
D03*
X4750D02*
D03*
X5750Y6200D02*
D03*
X4750D02*
D03*
X19950Y1000D02*
D03*
X18950D02*
D03*
X17950D02*
D03*
X16950D02*
D03*
X15950D02*
D03*
X14950D02*
D03*
X13950D02*
D03*
X12950D02*
D03*
X11950D02*
D03*
X10950D02*
D03*
X9950D02*
D03*
X8950D02*
D03*
X7950D02*
D03*
X6950D02*
D03*
X5950D02*
D03*
X4950D02*
D03*
X3950D02*
D03*
X2950D02*
D03*
X1950D02*
D03*
X19950Y8950D02*
D03*
X18950D02*
D03*
X17950D02*
D03*
X16950D02*
D03*
X15950D02*
D03*
X14950D02*
D03*
X13950D02*
D03*
X12950D02*
D03*
X11950D02*
D03*
X10950D02*
D03*
X9950D02*
D03*
X8950D02*
D03*
X7950D02*
D03*
X6950D02*
D03*
X5950D02*
D03*
X4950D02*
D03*
X3950D02*
D03*
X2950D02*
D03*
X1950D02*
D03*
D42*
X21950Y3450D02*
D03*
D43*
Y4450D02*
D03*
Y5450D02*
D03*
Y6450D02*
D03*
D44*
X20400D02*
D03*
D45*
Y5450D02*
D03*
Y4450D02*
D03*
Y3450D02*
D03*
D46*
X20950Y1000D02*
D03*
Y8950D02*
D03*
D49*
X12250Y5450D02*
D03*
X7750Y4400D02*
D03*
X10350Y6150D02*
D03*
X10550Y6350D02*
D03*
X14200Y7500D02*
D03*
Y7200D02*
D03*
X7400Y5450D02*
D03*
X5150D02*
D03*
X8050Y4750D02*
D03*
X10850Y5400D02*
D03*
X21957Y240D02*
D03*
Y1240D02*
D03*
Y2240D02*
D03*
X21969Y9245D02*
D03*
Y8245D02*
D03*
X20969Y7245D02*
D03*
X750Y9700D02*
D03*
Y8700D02*
D03*
Y7700D02*
D03*
X1750D02*
D03*
X2750D02*
D03*
X750Y2200D02*
D03*
X1750D02*
D03*
X750Y1200D02*
D03*
X2750Y2200D02*
D03*
X750Y200D02*
D03*
X6150Y2800D02*
D03*
X13300Y4000D02*
D03*
X13650D02*
D03*
X6450Y2800D02*
D03*
Y3450D02*
D03*
X6150D02*
D03*
X13300Y5800D02*
D03*
X17200Y4950D02*
D03*
X17550D02*
D03*
X18400Y4650D02*
D03*
Y5250D02*
D03*
X18100Y4200D02*
D03*
X17800D02*
D03*
X18100Y5750D02*
D03*
X17800D02*
D03*
X12200Y2700D02*
D03*
X13196Y3426D02*
D03*
X6750Y4150D02*
D03*
X10850Y4700D02*
D03*
X19500Y2600D02*
D03*
X14100Y4850D02*
D03*
X12250Y4950D02*
D03*
X14300Y5400D02*
D03*
X14450Y4950D02*
D03*
X16700Y4900D02*
D03*
Y6450D02*
D03*
X16400Y6900D02*
D03*
X14454D02*
D03*
X14750Y6650D02*
D03*
X15436Y5912D02*
D03*
X17950Y6750D02*
D03*
X11150Y6600D02*
D03*
X13630Y5800D02*
D03*
X10859Y5759D02*
D03*
X15700Y4000D02*
D03*
X7450Y7250D02*
D03*
X9550Y6850D02*
D03*
X8900D02*
D03*
X3250Y5200D02*
D03*
Y4950D02*
D03*
X3700Y5450D02*
D03*
X3450Y3700D02*
D03*
D50*
X13500Y5392D02*
D03*
Y4408D02*
D03*
D51*
X9700Y3326D02*
D03*
Y2774D02*
D03*
X8250Y7324D02*
D03*
Y7876D02*
D03*
X16700Y7374D02*
D03*
Y7926D02*
D03*
X3200Y2074D02*
D03*
Y2626D02*
D03*
X3900Y2074D02*
D03*
Y2626D02*
D03*
X9000Y2774D02*
D03*
Y3326D02*
D03*
X8300Y2774D02*
D03*
Y3326D02*
D03*
X18600Y7926D02*
D03*
Y7374D02*
D03*
X15400D02*
D03*
Y7926D02*
D03*
X12750Y5976D02*
D03*
Y5424D02*
D03*
Y3824D02*
D03*
Y4376D02*
D03*
D52*
X20676Y1900D02*
D03*
X20124D02*
D03*
X17276Y5750D02*
D03*
X16724D02*
D03*
X17226Y4150D02*
D03*
X16674D02*
D03*
D53*
X17350Y7353D02*
D03*
Y7947D02*
D03*
X11550Y2753D02*
D03*
Y3347D02*
D03*
X10350Y2753D02*
D03*
Y3347D02*
D03*
X10950Y2753D02*
D03*
Y3347D02*
D03*
X8900Y7303D02*
D03*
Y7897D02*
D03*
X9550Y7303D02*
D03*
Y7897D02*
D03*
X16050Y7947D02*
D03*
Y7353D02*
D03*
X17950D02*
D03*
Y7947D02*
D03*
Y4653D02*
D03*
Y5247D02*
D03*
D54*
X7319Y3100D02*
D03*
D55*
X4981Y4006D02*
D03*
Y3100D02*
D03*
Y2194D02*
D03*
D56*
X20103Y2600D02*
D03*
X20697D02*
D03*
D57*
X11510Y1455D02*
X13171Y3115D01*
X13150Y3250D02*
X19200D01*
X11400Y1500D02*
X13150Y3250D01*
X11400Y828D02*
Y1500D01*
X20065Y3115D02*
X20400Y3450D01*
X13171Y3115D02*
X20065D01*
X19200Y3250D02*
X20400Y4450D01*
X11510Y783D02*
Y1455D01*
X11178Y450D02*
X11510Y783D01*
X11132Y560D02*
X11400Y828D01*
X9390Y560D02*
X11132D01*
X8500Y450D02*
X11178D01*
X7950Y1000D02*
X8500Y450D01*
X8950Y1000D02*
X9390Y560D01*
D58*
X11550Y3347D02*
X11553Y3350D01*
X3900Y2626D02*
X3926Y2600D01*
M02*
