M48
;Layer_Color=9474304
;FILE_FORMAT=2:4
INCH,LZ
;TYPE=PLATED
T1F00S00C0.0080
T2F00S00C0.0433
T3F00S00C0.0472
%
T01
X021957Y00024
X00075Y0002
Y0012
Y0022
X00175
X00275
X00345Y0037
X00325Y00495
Y0052
X0037Y00545
X00515
X0074
X00805Y00475
X00775Y0044
X00675Y00415
X00645Y00345
X00615
Y0028
X00645
X00745Y00725
X0089Y00685
X00955
X01035Y00615
X01055Y00635
X01115Y0066
X010859Y005759
X01085Y0054
Y0047
X01225Y00495
Y00545
X0122Y0027
X00275Y0077
X00175
X00075
Y0087
Y0097
X0142Y0075
Y0072
X014454Y0069
X01475Y00665
X015436Y005912
X0143Y0054
X01445Y00495
X0141Y00485
X01365Y004
X0133
X013196Y003426
X0133Y0058
X01363Y0058
X0167Y00645
X0164Y0069
X01795Y00675
X0181Y00575
X0178
X01755Y00495
X0172
X0167Y0049
X0178Y0042
X0181
X0184Y00465
Y00525
X0195Y0026
X021957Y00224
Y00124
X020969Y007245
X021969Y008245
Y009245
X0157Y004
T02
X0204Y00345
Y00445
Y00545
Y00645
X02195
Y00545
Y00445
Y00345
T03
X01295Y001
X01395
X01495
X01595
X01695
X01795
X01895
X01995
X02095
X01195
X01095
X00995
X00895
X00795
X00695
X00595
X00495
X00395
X00295
X00195
Y00895
X00295
X00395
X00495
X00595
X00695
X00795
X00895
X00995
X01095
X01195
X00675Y00725
X00575
X00475
Y0062
X00575
X00675
X01295Y00895
X01395
X01495
X01595
X01695
X01795
X01895
X01995
X02095
M30
