G04*
G04 #@! TF.GenerationSoftware,Altium Limited,Altium Designer,20.0.13 (296)*
G04*
G04 Layer_Color=8388736*
%FSLAX24Y24*%
%MOIN*%
G70*
G01*
G75*
%ADD10C,0.0100*%
%ADD21R,0.0640X0.0197*%
%ADD22R,0.0788X0.0867*%
G04:AMPARAMS|DCode=23|XSize=63mil|YSize=14.6mil|CornerRadius=0mil|HoleSize=0mil|Usage=FLASHONLY|Rotation=135.000|XOffset=0mil|YOffset=0mil|HoleType=Round|Shape=Round|*
%AMOVALD23*
21,1,0.0484,0.0146,0.0000,0.0000,135.0*
1,1,0.0146,0.0171,-0.0171*
1,1,0.0146,-0.0171,0.0171*
%
%ADD23OVALD23*%

G04:AMPARAMS|DCode=24|XSize=14.6mil|YSize=63mil|CornerRadius=0mil|HoleSize=0mil|Usage=FLASHONLY|Rotation=135.000|XOffset=0mil|YOffset=0mil|HoleType=Round|Shape=Round|*
%AMOVALD24*
21,1,0.0484,0.0146,0.0000,0.0000,225.0*
1,1,0.0146,0.0171,0.0171*
1,1,0.0146,-0.0171,-0.0171*
%
%ADD24OVALD24*%

%ADD25R,0.0434X0.0709*%
%ADD26R,0.0591X0.0434*%
%ADD27R,0.0985X0.0788*%
%ADD28R,0.0660X0.0749*%
%ADD29C,0.0749*%
%ADD30R,0.0749X0.0749*%
%ADD31C,0.0749*%
%ADD32R,0.0709X0.0709*%
%ADD33C,0.0709*%
%ADD34R,0.0749X0.0749*%
%ADD35C,0.0180*%
%ADD36C,0.0240*%
D10*
X-50Y3400D02*
X2200D01*
X-50Y6500D02*
X2200D01*
X-50Y-50D02*
Y3400D01*
Y6500D02*
Y9950D01*
X2200Y3400D02*
Y6500D01*
X-50Y-50D02*
X22950D01*
Y9950D01*
X-50D02*
X22950D01*
D21*
X2558Y5462D02*
D03*
Y5206D02*
D03*
Y4950D02*
D03*
Y4694D02*
D03*
Y4438D02*
D03*
D22*
X742Y2903D02*
D03*
Y6997D02*
D03*
X2396D02*
D03*
Y2903D02*
D03*
D23*
X15149Y4532D02*
D03*
X15009Y4393D02*
D03*
X14870Y4254D02*
D03*
X14731Y4115D02*
D03*
X14592Y3976D02*
D03*
X14453Y3836D02*
D03*
X14314Y3697D02*
D03*
X14174Y3558D02*
D03*
X14035Y3419D02*
D03*
X13896Y3280D02*
D03*
X13757Y3141D02*
D03*
X13618Y3001D02*
D03*
X11251Y5368D02*
D03*
X11391Y5507D02*
D03*
X11530Y5646D02*
D03*
X11669Y5785D02*
D03*
X11808Y5924D02*
D03*
X11947Y6064D02*
D03*
X12086Y6203D02*
D03*
X12226Y6342D02*
D03*
X12365Y6481D02*
D03*
X12504Y6620D02*
D03*
X12643Y6759D02*
D03*
X12782Y6899D02*
D03*
D24*
Y3001D02*
D03*
X12643Y3141D02*
D03*
X12504Y3280D02*
D03*
X12365Y3419D02*
D03*
X12226Y3558D02*
D03*
X12086Y3697D02*
D03*
X11947Y3836D02*
D03*
X11808Y3976D02*
D03*
X11669Y4115D02*
D03*
X11530Y4254D02*
D03*
X11391Y4393D02*
D03*
X11251Y4532D02*
D03*
X13618Y6899D02*
D03*
X13757Y6759D02*
D03*
X13896Y6620D02*
D03*
X14035Y6481D02*
D03*
X14174Y6342D02*
D03*
X14314Y6203D02*
D03*
X14453Y6064D02*
D03*
X14592Y5924D02*
D03*
X14731Y5785D02*
D03*
X14870Y5646D02*
D03*
X15009Y5507D02*
D03*
X15149Y5368D02*
D03*
D25*
X8828Y4249D02*
D03*
X7372D02*
D03*
X4122D02*
D03*
X5578D02*
D03*
X8422Y5401D02*
D03*
X9878D02*
D03*
D26*
X18600Y6737D02*
D03*
Y7563D02*
D03*
X18550Y2537D02*
D03*
Y3363D02*
D03*
D27*
X16700Y5757D02*
D03*
Y4143D02*
D03*
D28*
X6750Y7250D02*
D03*
Y6200D02*
D03*
D29*
X5750Y7250D02*
D03*
X4750D02*
D03*
X5750Y6200D02*
D03*
X4750D02*
D03*
X19950Y1000D02*
D03*
X18950D02*
D03*
X17950D02*
D03*
X16950D02*
D03*
X15950D02*
D03*
X14950D02*
D03*
X13950D02*
D03*
X12950D02*
D03*
X11950D02*
D03*
X10950D02*
D03*
X9950D02*
D03*
X8950D02*
D03*
X7950D02*
D03*
X6950D02*
D03*
X5950D02*
D03*
X4950D02*
D03*
X3950D02*
D03*
X2950D02*
D03*
X1950D02*
D03*
X19950Y8950D02*
D03*
X18950D02*
D03*
X17950D02*
D03*
X16950D02*
D03*
X15950D02*
D03*
X14950D02*
D03*
X13950D02*
D03*
X12950D02*
D03*
X11950D02*
D03*
X10950D02*
D03*
X9950D02*
D03*
X8950D02*
D03*
X7950D02*
D03*
X6950D02*
D03*
X5950D02*
D03*
X4950D02*
D03*
X3950D02*
D03*
X2950D02*
D03*
X1950D02*
D03*
D30*
X21950Y3450D02*
D03*
D31*
Y4450D02*
D03*
Y5450D02*
D03*
Y6450D02*
D03*
D32*
X20400D02*
D03*
D33*
Y5450D02*
D03*
Y4450D02*
D03*
Y3450D02*
D03*
D34*
X20950Y1000D02*
D03*
Y8950D02*
D03*
D35*
X6150Y2800D02*
D03*
X13300Y4000D02*
D03*
X13650D02*
D03*
X6450Y2800D02*
D03*
Y3450D02*
D03*
X6150D02*
D03*
D36*
X13300Y5800D02*
D03*
M02*
